<svg width="1083" height="769" viewBox="0 0 1083 769" fill="none" xmlns="http://www.w3.org/2000/svg">
<rect width="1083" height="769" fill="#FDFCFC"/>
<path d="M831.808 617.827H830.859V621.622H834.79V622.842H838.043V620.945H832.757V619.318H838.043V617.827H838.992V619.318H858.917V617.827H859.866V619.318H863.933V616.878H882.231V619.454H882.367H882.773V617.827H883.858V619.454H886.162V617.963H884.671L884.264 616.878L882.773 615.658H837.094L835.197 617.827H833.706V616.878H831.808V617.827Z" fill="#202020" stroke="black"/>
<path d="M834.789 626.773V624.604H851.326H852.139H861.356V626.773H853.223V625.824L852.139 624.604H851.326V626.773H834.789Z" fill="#202020"/>
<path d="M834.789 624.604V626.773H851.326V624.604H852.139L853.223 625.824V626.773H861.356V624.604H834.789Z" stroke="black"/>
<path d="M769.591 627.546H761.052C758.881 627.546 757.121 625.786 757.121 623.615H773.522C773.522 625.786 771.762 627.546 769.591 627.546Z" fill="#4A4A4A" stroke="black"/>
<path d="M925.066 622.978C925.716 619.617 928.048 615.523 929.132 613.896H924.523L923.846 615.252L923.168 622.978H925.066Z" fill="#F7F7F7" stroke="black"/>
<path d="M922.071 564H738V616.321H922.071V564Z" fill="url(#paint0_linear_3746_15132)" stroke="black" stroke-linecap="square"/>
<path d="M956.375 579.874L956.338 579.867C955.362 579.683 955.59 580.755 956.375 581.365C956.82 581.633 957.322 581.793 957.841 581.833L960.577 582.043C961.73 582.518 962.201 582.912 962.347 583.184C962.461 583.396 962.203 583.534 961.963 583.534C961.434 583.534 961.017 583.984 961.057 584.511L961.525 590.718C961.525 592.192 962.034 593.152 962.506 593.679C962.683 593.878 962.643 594.256 962.395 594.355C962.358 594.37 962.318 594.378 962.278 594.378H958.272H957.324H957.148C956.666 594.378 956.218 594.624 955.959 595.031L955.916 595.099C955.622 595.561 955.65 596.157 955.986 596.589L956.101 596.737C956.274 596.959 956.539 597.089 956.82 597.089C957.323 597.089 957.73 596.681 957.73 596.178V596.14C957.73 595.616 958.155 595.191 958.679 595.191H962.068C963.486 595.102 964.216 594.223 964.509 593.559C964.623 593.301 964.643 593.016 964.643 592.734V586.292C964.643 586.011 964.793 585.752 965.037 585.613C965.36 585.429 965.76 585.516 966.081 585.704C966.395 585.888 966.727 585.962 967.03 585.974C967.592 585.996 968.061 585.525 967.979 584.969C967.898 584.409 967.594 583.894 967.354 583.534C966.779 582.575 965.561 581.935 964.88 581.799C964.724 581.768 964.559 581.777 964.412 581.839C963.633 582.168 964.075 583.294 964.507 584.002C964.579 584.119 964.549 584.274 964.435 584.351C964.324 584.424 964.175 584.397 964.098 584.289L963.666 583.684C963.595 583.585 963.544 583.473 963.508 583.357C963.116 582.08 962.313 581.307 961.785 580.967C961.618 580.86 961.43 580.795 961.239 580.745C959.704 580.344 957.393 580.002 956.375 579.874Z" fill="black" stroke="black"/>
<path d="M939.976 578.926L939.569 580.281L939.433 580.552L926.286 580.688L924.794 582.179L924.659 610.779H923.71V602.239H923.575V603.053H923.032V603.459H923.304H923.575V603.866H923.304V604.408H923.575V604.815H923.304V605.493H923.575V605.764H923.304V606.577H923.575V606.848H923.304V607.526H923.575V607.932H923.168V608.339H923.575V608.746H923.168V609.288H923.439V609.694H923.168V610.372C923.168 611.348 923.981 611.502 924.388 611.457L923.981 612.541H923.575C922.165 612.541 921.812 611.547 921.812 611.05V609.288H922.084V608.746H921.812V608.339H922.084V607.932H921.812V607.526H922.084V606.848H921.812V606.306H922.084V605.764H921.812V605.221H922.084V604.815H921.812V604.408H922.219V603.866H921.812V603.459H922.219V603.188L921.812 602.917V601.562L922.219 584.89L922.49 584.212C922.273 580.959 923.394 578.248 923.981 577.299V575.808H924.794L925.743 574.995C926.611 574.344 928.093 574.272 928.725 574.317C933.496 574.425 937.039 575.627 938.213 576.215C939.948 577.191 940.111 578.429 939.976 578.926Z" fill="black" stroke="black"/>
<path d="M923.98 579.875V564.693C940.788 566.103 949.96 575.401 952.445 579.875H923.98Z" fill="#CCCCCC" stroke="black"/>
<path d="M924.656 582.179V611.185C934.741 611.185 938.979 611.637 939.837 611.863C944.825 613.056 946.886 618.957 947.292 621.758H948.241V620.809C948.675 618.315 947.067 614.167 946.208 612.405H959.356V607.797C960.332 601.616 958.136 596.185 956.916 594.242L952.714 580.688H938.346H926.147L924.656 582.179Z" fill="#CCCCCC" stroke="black"/>
<path d="M924.93 599.8L935.231 604.137L958.41 606.306L959.358 607.797" stroke="black"/>
<path d="M958.682 613.49L958.411 612.541H946.348C947.025 613.49 948.065 617.556 948.516 619.725L948.245 621.622H947.296V625.96L947.839 626.638V627.18L958.411 627.586C960.472 627.695 960.535 626.276 960.309 625.553V614.71C960.2 613.734 959.179 613.49 958.682 613.49Z" fill="#CCCCCC" stroke="black"/>
<circle cx="935.228" cy="625.147" r="7.90385" fill="#BCBCBC" stroke="black"/>
<circle cx="935.231" cy="625.147" r="1.66874" fill="black" stroke="black"/>
<circle cx="935.23" cy="625.147" r="4.92184" stroke="black"/>
<circle cx="935.229" cy="625.147" r="3.29529" stroke="black"/>
<circle cx="935.23" cy="625.147" r="4.10856" stroke="black"/>
<circle cx="935.228" cy="622.436" r="0.271092" fill="black"/>
<circle cx="935.228" cy="628.129" r="0.271092" fill="black"/>
<circle cx="937.924" cy="624.366" r="0.271092" transform="rotate(71.2218 937.924 624.366)" fill="black"/>
<circle cx="932.534" cy="626.199" r="0.271092" transform="rotate(71.2218 932.534 626.199)" fill="black"/>
<circle cx="937.94" cy="626.152" r="0.271092" transform="rotate(107.789 937.94 626.152)" fill="black"/>
<circle cx="932.518" cy="624.413" r="0.271092" transform="rotate(107.789 932.518 624.413)" fill="black"/>
<circle cx="936.967" cy="627.537" r="0.271092" transform="rotate(142.365 936.967 627.537)" fill="black"/>
<circle cx="933.491" cy="623.028" r="0.271092" transform="rotate(142.365 933.491 623.028)" fill="black"/>
<circle cx="933.547" cy="627.578" r="0.271092" transform="rotate(-143.736 933.547 627.578)" fill="black"/>
<circle cx="936.911" cy="622.987" r="0.271092" transform="rotate(-143.736 936.911 622.987)" fill="black"/>
<circle cx="899.986" cy="625.147" r="7.90385" fill="#BCBCBC" stroke="black"/>
<circle cx="899.989" cy="625.147" r="1.66874" fill="black" stroke="black"/>
<circle cx="899.988" cy="625.147" r="4.92184" stroke="black"/>
<circle cx="899.987" cy="625.147" r="3.29529" stroke="black"/>
<circle cx="899.987" cy="625.147" r="4.10856" stroke="black"/>
<circle cx="899.986" cy="622.436" r="0.271092" fill="black"/>
<circle cx="899.986" cy="628.129" r="0.271092" fill="black"/>
<circle cx="902.682" cy="624.366" r="0.271092" transform="rotate(71.2218 902.682 624.366)" fill="black"/>
<circle cx="897.292" cy="626.199" r="0.271092" transform="rotate(71.2218 897.292 626.199)" fill="black"/>
<circle cx="902.698" cy="626.152" r="0.271092" transform="rotate(107.789 902.698 626.152)" fill="black"/>
<circle cx="897.276" cy="624.413" r="0.271092" transform="rotate(107.789 897.276 624.413)" fill="black"/>
<circle cx="901.725" cy="627.537" r="0.271092" transform="rotate(142.365 901.725 627.537)" fill="black"/>
<circle cx="898.249" cy="623.028" r="0.271092" transform="rotate(142.365 898.249 623.028)" fill="black"/>
<circle cx="898.305" cy="627.578" r="0.271092" transform="rotate(-143.736 898.305 627.578)" fill="black"/>
<circle cx="901.668" cy="622.987" r="0.271092" transform="rotate(-143.736 901.668 622.987)" fill="black"/>
<circle cx="821.099" cy="625.147" r="7.90385" fill="#BCBCBC" stroke="black"/>
<circle cx="821.102" cy="625.147" r="1.66874" fill="black" stroke="black"/>
<circle cx="821.102" cy="625.147" r="4.92184" stroke="black"/>
<circle cx="821.1" cy="625.147" r="3.29529" stroke="black"/>
<circle cx="821.101" cy="625.147" r="4.10856" stroke="black"/>
<circle cx="821.099" cy="622.436" r="0.271092" fill="black"/>
<circle cx="821.099" cy="628.129" r="0.271092" fill="black"/>
<circle cx="823.795" cy="624.366" r="0.271092" transform="rotate(71.2218 823.795 624.366)" fill="black"/>
<circle cx="818.405" cy="626.199" r="0.271092" transform="rotate(71.2218 818.405 626.199)" fill="black"/>
<circle cx="823.811" cy="626.152" r="0.271092" transform="rotate(107.789 823.811 626.152)" fill="black"/>
<circle cx="818.39" cy="624.413" r="0.271092" transform="rotate(107.789 818.39 624.413)" fill="black"/>
<circle cx="822.839" cy="627.537" r="0.271092" transform="rotate(142.365 822.839 627.537)" fill="black"/>
<circle cx="819.362" cy="623.028" r="0.271092" transform="rotate(142.365 819.362 623.028)" fill="black"/>
<circle cx="819.418" cy="627.578" r="0.271092" transform="rotate(-143.736 819.418 627.578)" fill="black"/>
<circle cx="822.782" cy="622.987" r="0.271092" transform="rotate(-143.736 822.782 622.987)" fill="black"/>
<circle cx="798.06" cy="625.147" r="7.90385" fill="#BCBCBC" stroke="black"/>
<circle cx="798.063" cy="625.147" r="1.66874" fill="black" stroke="black"/>
<circle cx="798.062" cy="625.147" r="4.92184" stroke="black"/>
<circle cx="798.061" cy="625.147" r="3.29529" stroke="black"/>
<circle cx="798.062" cy="625.147" r="4.10856" stroke="black"/>
<circle cx="798.06" cy="622.436" r="0.271092" fill="black"/>
<circle cx="798.06" cy="628.129" r="0.271092" fill="black"/>
<circle cx="800.756" cy="624.366" r="0.271092" transform="rotate(71.2218 800.756 624.366)" fill="black"/>
<circle cx="795.366" cy="626.199" r="0.271092" transform="rotate(71.2218 795.366 626.199)" fill="black"/>
<circle cx="800.772" cy="626.152" r="0.271092" transform="rotate(107.789 800.772 626.152)" fill="black"/>
<circle cx="795.35" cy="624.413" r="0.271092" transform="rotate(107.789 795.35 624.413)" fill="black"/>
<circle cx="799.799" cy="627.537" r="0.271092" transform="rotate(142.365 799.799 627.537)" fill="black"/>
<circle cx="796.323" cy="623.028" r="0.271092" transform="rotate(142.365 796.323 623.028)" fill="black"/>
<circle cx="796.379" cy="627.578" r="0.271092" transform="rotate(-143.736 796.379 627.578)" fill="black"/>
<circle cx="799.743" cy="622.987" r="0.271092" transform="rotate(-143.736 799.743 622.987)" fill="black"/>
<path d="M937.619 583.883C937.49 583.943 937.381 584.008 937.29 584.076C936.887 584.374 936.388 584.89 935.888 584.89C935.449 584.89 935.094 584.534 935.094 584.096V583.263C935.094 582.365 935.822 581.636 936.72 581.636H949.329C950.361 581.636 951.259 582.343 951.503 583.346L952.011 585.443C952.093 585.782 951.836 586.109 951.487 586.109C951.403 586.109 951.32 586.09 951.245 586.053L950.963 585.911C950.689 585.774 950.453 585.573 950.275 585.324L950.105 585.085C949.531 584.282 948.605 583.805 947.618 583.805H938.006C937.873 583.805 937.739 583.827 937.619 583.883Z" fill="black" stroke="black"/>
<path d="M952.173 584.212L953.46 592.45C953.5 592.702 953.716 592.887 953.97 592.887C954.3 592.887 954.546 592.582 954.475 592.26L953.122 586.11C953.049 585.403 953.002 584.816 952.974 584.33C952.9 583.021 953.781 581.239 955.059 581.531C955.342 581.595 955.553 581.716 955.758 581.922C956.569 582.736 956.917 584.025 957.021 584.831C957.044 585.009 956.901 585.161 956.721 585.161C956.535 585.161 956.39 585.32 956.408 585.505L956.646 588.007L957.258 590.762C957.364 591.236 957.869 591.503 958.32 591.323C958.619 591.203 958.815 590.914 958.815 590.592V586.368C958.815 586.032 958.666 585.714 958.408 585.5C958.15 585.285 958.009 584.966 957.964 584.633C957.787 583.349 957.043 581.96 956.646 581.366C955.829 580.277 954.64 579.934 953.902 579.878C953.654 579.859 953.409 579.914 953.173 579.993C952.87 580.094 952.552 580.146 952.232 580.146H948.852C948.515 580.146 948.242 580.419 948.242 580.756C948.242 581.092 948.515 581.366 948.852 581.366H950.019C950.813 581.366 951.51 581.891 951.728 582.654L952.173 584.212Z" fill="black" stroke="black"/>
<path d="M940.212 614.627C943.271 615.897 945.075 619.229 945.764 621.213C945.875 621.533 946.17 621.758 946.508 621.758C946.984 621.758 947.341 621.321 947.228 620.859C945.648 614.389 941.603 612.074 939.7 611.728C938.683 611.524 930.343 611.305 925.549 611.204C925.009 611.192 924.517 611.512 924.307 612.01C923.95 612.858 924.549 613.802 925.468 613.841L939.156 614.416C939.517 614.431 939.878 614.489 940.212 614.627Z" fill="black"/>
<path d="M738.012 621.487V615.658H828.692L830.861 617.827V621.894V626.773L831.538 627.858L830.861 628.4H829.641L828.692 627.858L829.641 626.773C829.858 624.496 829.099 622.571 828.692 621.894C827.065 617.665 822.863 616.788 820.966 616.878C817.93 616.878 815.634 618.776 814.866 619.725C812.698 622.002 812.607 625.373 812.833 626.773H809.987V622.571H810.8V621.487H808.496V627.18L808.902 627.858L808.496 628.4H807.953H807.14L806.056 627.858L807.14 626.773C806.923 625.58 806.327 624.107 806.056 623.52C805.08 617.881 800.137 616.743 797.787 616.878C795.402 616.987 793.721 618.098 793.179 618.64C789.926 620.701 789.564 624.921 789.79 626.773H787.35V622.571H788.164V621.487H773.66V623.52H756.988V621.487H738.012Z" fill="#202020" stroke="black"/>
<rect x="757.621" y="616.701" width="15.8077" height="6.31948" stroke="black"/>
<path d="M882.097 625.96V616.878H863.934V625.96H882.097Z" fill="#E4E4E4" stroke="black"/>
<path d="M859.866 619.318H863.932V620.945H859.866V622.842H863.932V624.469H832.621V622.842H837.907V620.945H832.621V619.318H837.907V617.827H838.992V619.318H858.917V617.827H859.866V619.318Z" fill="#E4E4E4" stroke="black"/>
<path d="M858.782 621.08H846.719V622.707H858.782V621.08Z" fill="#202020" stroke="black"/>
<path d="M851.465 622.707V621.487H853.498V621.894L852.685 622.707H851.465Z" fill="white" stroke="black"/>
<path d="M888.737 624.469H882.23V622.707H882.637V621.08H882.23V619.454H882.637V617.827H883.857V619.454H886.161V616.065H886.975V619.454H888.737V621.08H886.975V623.114H888.737V624.469Z" fill="#F7F7F7" stroke="black"/>
<path d="M886.031 621.08H883.727V622.842H886.031V621.08Z" stroke="black"/>
<path d="M943.5 626.773H947.838L947.296 625.96V622.978L947.16 621.351L945.398 620.538C944.639 617.502 941.286 614.936 939.705 614.032H928.997C927.587 615.55 925.789 620.538 925.066 622.842H923.033L923.575 615.659H921.542V616.472H914.087V617.692H910.427V617.014L908.394 615.659H892.4L887.113 617.692V619.589H888.469V621.623H889.553V626.096H891.722C891.505 623.493 892.535 621.306 893.077 620.538C895.571 617.394 899.267 616.878 900.803 617.014C904.273 617.014 906.767 620.086 907.581 621.623H912.189V623.656H908.394V626.096H916.12V625.553L917.069 625.824V626.367H918.289V625.553L919.509 626.096H920.457V626.773H926.964C926.638 622.761 928.183 620.312 928.997 619.589C931.708 616.336 935.548 616.517 937.129 617.014C942.985 618.098 943.816 623.972 943.5 626.773Z" fill="#202020" stroke="black"/>
<path d="M915.168 621.623H920.996V622.842H920.454V623.656H919.505V624.062H918.421V623.656H916.93L916.252 624.062L915.846 623.656H915.168V621.623Z" fill="white" stroke="black"/>
<rect x="859.867" y="620.809" width="4.06638" height="1.89764" fill="#202020"/>
<path d="M884.806 627.315L861.492 626.909V624.469H863.796L864.068 625.824H882.095V624.469H888.33V623.114H886.975V621.08H888.33V621.487H887.924V622.165L888.601 623.114V624.469C887.951 627.397 885.8 626.954 884.806 626.367V627.315Z" fill="#202020" stroke="black"/>
<rect x="897.75" y="611.795" width="5.82848" height="0.406638" stroke="black" stroke-width="0.406638"/>
<rect x="877.692" y="611.795" width="5.82848" height="0.406638" stroke="black" stroke-width="0.406638"/>
<rect x="856.817" y="611.795" width="5.82848" height="0.406638" stroke="black" stroke-width="0.406638"/>
<rect x="836.754" y="611.795" width="5.82848" height="0.406638" stroke="black" stroke-width="0.406638"/>
<rect x="816.696" y="611.795" width="5.82848" height="0.406638" stroke="black" stroke-width="0.406638"/>
<rect x="796.906" y="611.795" width="5.82848" height="0.406638" stroke="black" stroke-width="0.406638"/>
<rect x="774.946" y="611.795" width="5.82848" height="0.406638" stroke="black" stroke-width="0.406638"/>
<rect x="754.071" y="611.795" width="5.82848" height="0.406638" stroke="black" stroke-width="0.406638"/>
<path d="M743.637 598.851H914.557C916.767 598.851 918.557 597.06 918.557 594.851V570.049C918.557 567.839 916.767 566.049 914.557 566.049H743.637C741.428 566.049 739.637 567.839 739.637 570.049V594.851C739.637 597.06 741.428 598.851 743.637 598.851Z" stroke="black"/>
<path d="M745.465 610.237H829.097" stroke="black"/>
<path d="M941.195 577.164C937.508 574.453 928.182 572.419 923.98 571.742V575.808L940.246 578.79H941.195V577.164Z" fill="#CCCCCC" stroke="black"/>
<path d="M954.885 603.595C954.66 600.839 954.154 595.245 953.937 594.92C953.72 594.595 954.479 594.784 954.885 594.92L954.479 592.616" stroke="black"/>
<path d="M932.518 582.856H930.484V590.583L932.518 590.989V582.856Z" stroke="black"/>
<path d="M928.449 582.856H927.5V590.176H928.449V582.856Z" stroke="black"/>
<path d="M936.992 588.452V587.67C936.992 585.461 938.783 583.67 940.992 583.67H946.677C948.665 583.67 950.351 585.13 950.636 587.097L950.939 589.198C951.339 591.965 948.85 594.278 946.12 593.677L940.132 592.358C938.298 591.954 936.992 590.33 936.992 588.452Z" fill="#E7E7E7" stroke="black"/>
<path d="M935.637 599.257H939.703" stroke="black"/>
<path d="M936.992 598.851V598.851C937.162 598.597 937.447 598.444 937.752 598.444H938.371C938.616 598.444 938.852 598.542 939.025 598.715V598.715" stroke="black"/>
<path d="M948.105 594.106L950.41 591.938" stroke="black"/>
<path d="M934.957 603.595V581.636H951.087L952.171 586.109" stroke="black"/>
<path d="M947.699 615.523H954.341V619.725H948.512" stroke="black"/>
<path d="M948.38 621.487H953.937V625.96H947.16" stroke="black"/>
<path d="M955.157 613.219H946.888L946.617 612.541H958.545V613.49H956.105V625.824L958.545 626.095V627.044L955.157 626.773V613.219Z" fill="#202020" stroke="black"/>
<path d="M836.957 610.508H916.387" stroke="black"/>
<g opacity="0.5" filter="url(#filter0_f_3746_15132)">
<ellipse cx="853" cy="634.5" rx="121" ry="3.5" fill="black"/>
</g>
<path d="M174.748 566.911H170.762Z" fill="white"/>
<path d="M174.748 566.911H170.762" stroke="black" stroke-linecap="round"/>
<path d="M174.117 567.331H174.747V568.17H174.327L174.117 567.331Z" fill="white" stroke="black" stroke-linecap="round"/>
<path d="M171.176 567.541H171.805L172.015 568.38H171.176V567.541Z" fill="white" stroke="black" stroke-linecap="round"/>
<path d="M173.488 567.541H173.803L173.908 568.38H173.488V567.541Z" fill="white" stroke="black" stroke-linecap="round"/>
<path d="M173.906 564.184V564.813Z" fill="white"/>
<path d="M173.906 564.184V564.813" stroke="black" stroke-linecap="round"/>
<path d="M173.273 564.184V565.023Z" fill="white"/>
<path d="M173.273 564.184V565.023" stroke="black" stroke-linecap="round"/>
<path d="M172.438 563.973V565.232Z" fill="white"/>
<path d="M172.438 563.973V565.232" stroke="black" stroke-linecap="round"/>
<path d="M171.809 563.973V564.813Z" fill="white"/>
<path d="M171.809 563.973V564.813" stroke="black" stroke-linecap="round"/>
<path d="M159.225 591.251L159.016 593.769H165.311V592.3" fill="white" stroke="black" stroke-linecap="round"/>
<path d="M159.011 593.769L158.801 595.238H157.332V596.707" fill="white"/>
<path d="M159.011 593.769L158.801 595.238H157.332V596.707" stroke="black" stroke-linecap="round"/>
<path d="M170.344 560.826L167.406 562.505H170.554L170.344 560.826Z" fill="white" stroke="black" stroke-width="0.5" stroke-linecap="round"/>
<path d="M163.208 569.849H162.578V568.17" fill="white"/>
<path d="M163.208 569.849H162.578V568.17" stroke="black" stroke-width="0.5" stroke-linecap="round"/>
<path d="M164.465 569.429V568.59Z" fill="white"/>
<path d="M164.465 569.429V568.59" stroke="black" stroke-width="0.5" stroke-linecap="round"/>
<path d="M163.832 569.639V568.38Z" fill="white"/>
<path d="M163.832 569.639V568.38" stroke="black" stroke-width="0.5" stroke-linecap="round"/>
<path d="M175.164 562.085V565.023H175.584V562.085H175.164Z" fill="white" stroke="black" stroke-width="0.5" stroke-linecap="round"/>
<path d="M178.319 561.666V565.023L179.159 565.652L177.69 565.862L176.641 564.813" fill="white"/>
<path d="M178.319 561.666V565.023L179.159 565.652L177.69 565.862L176.641 564.813" stroke="black" stroke-width="0.5" stroke-linecap="round"/>
<path d="M175.164 565.022L176.213 566.072L175.584 566.281" fill="white"/>
<path d="M175.164 565.022L176.213 566.072L175.584 566.281" stroke="black" stroke-width="0.5" stroke-linecap="round"/>
<path d="M178.313 561.665L179.782 560.826L179.362 560.197V559.567H178.523V559.357H178.103V558.518H177.264V559.777H176.215V557.679H175.586V559.148H173.277V559.777H174.327V560.197H173.068V559.777H172.858V559.567H172.438V560.197H171.809V560.616H172.438V562.295" fill="white"/>
<path d="M178.313 561.665L179.782 560.826L179.362 560.197V559.567H178.523V559.357H178.103V558.518H177.264V559.777H176.215V557.679H175.586V559.148H173.277V559.777H174.327V560.197H173.068V559.777H172.858V559.567H172.438V560.197H171.809V560.616H172.438V562.295" stroke="black" stroke-width="0.5" stroke-linecap="round"/>
<path d="M176.641 561.875H177.69V565.862" fill="white"/>
<path d="M176.641 561.875H177.69V565.862" stroke="black" stroke-width="0.5" stroke-linecap="round"/>
<path d="M175.59 562.085H176.01V565.862" fill="white"/>
<path d="M175.59 562.085H176.01V565.862" stroke="black" stroke-width="0.5" stroke-linecap="round"/>
<path d="M175.793 557.679V556.839Z" fill="white"/>
<path d="M175.793 557.679V556.839" stroke="black" stroke-width="0.5" stroke-linecap="round"/>
<path d="M175.791 557.259H175.371V556.42" fill="white"/>
<path d="M175.791 557.259H175.371V556.42" stroke="black" stroke-width="0.5" stroke-linecap="round"/>
<path d="M177.684 558.518V557.679Z" fill="white"/>
<path d="M177.684 558.518V557.679" stroke="black" stroke-width="0.5" stroke-linecap="round"/>
<path d="M187.544 566.282V564.393L183.977 564.813V566.282" fill="white"/>
<path d="M187.544 566.282V564.393L183.977 564.813V566.282" stroke="black" stroke-width="0.5" stroke-linecap="round"/>
<path d="M186.289 564.603V566.281Z" fill="white"/>
<path d="M186.289 564.603V566.281" stroke="black" stroke-width="0.5" stroke-linecap="round"/>
<path d="M185.027 564.813V566.282Z" fill="white"/>
<path d="M185.027 564.813V566.282" stroke="black" stroke-width="0.5" stroke-linecap="round"/>
<path d="M183.558 566.282V563.344H183.139V563.764H182.719V563.554H181.67V563.974H181.25V562.715H181.46V561.875H180.621V562.715H180.83V562.924H179.781V563.554H179.362V564.603H178.942V563.974H178.312" fill="white"/>
<path d="M183.558 566.282V563.344H183.139V563.764H182.719V563.554H181.67V563.974H181.25V562.715H181.46V561.875H180.621V562.715H180.83V562.924H179.781V563.554H179.362V564.603H178.942V563.974H178.312" stroke="black" stroke-width="0.5" stroke-linecap="round"/>
<path d="M181.882 563.554V561.036H181.672V556" fill="white"/>
<path d="M181.882 563.554V561.036H181.672V556" stroke="black" stroke-width="0.5" stroke-linecap="round"/>
<path d="M177.06 562.085H176.641V564.813H177.06V562.085Z" fill="white" stroke="black" stroke-width="0.5" stroke-linecap="round"/>
<path d="M175.793 567.331H176.003L175.793 568.38V567.331Z" fill="white" stroke="black" stroke-width="0.5" stroke-linecap="round"/>
<path d="M176.422 567.331H176.842L176.632 568.296H176.422V567.331Z" fill="white" stroke="black" stroke-width="0.5" stroke-linecap="round"/>
<path d="M179.996 566.911H180.416L180.206 567.876H179.996V566.911Z" fill="white" stroke="black" stroke-width="0.5" stroke-linecap="round"/>
<path d="M180.836 566.701H181.256L181.046 567.54H180.836V566.701Z" fill="white" stroke="black" stroke-width="0.5" stroke-linecap="round"/>
<path d="M181.672 566.491H182.092L181.882 567.331H181.672V566.491Z" fill="white" stroke="black" stroke-width="0.5" stroke-linecap="round"/>
<path d="M177.262 567.121H178.101V568.17H177.262V567.121Z" fill="white" stroke="black" stroke-width="0.5" stroke-linecap="round"/>
<path d="M178.52 567.121H179.359V568.17H178.52V567.121Z" fill="white" stroke="black" stroke-width="0.5" stroke-linecap="round"/>
<path d="M165.095 569.429L164.676 563.344ZM164.676 563.344H167.404L171.6 563.974H173.908V562.505L167.194 562.715L164.676 563.344Z" fill="white"/>
<path d="M165.095 569.429L164.676 563.344M164.676 563.344H167.404L171.6 563.974H173.908V562.505L167.194 562.715L164.676 563.344Z" stroke="black" stroke-linecap="round"/>
<path d="M173.3 564.105L164.832 563.5L165.437 568.943L167.251 570.153L167.856 571.968H168.461H169.671L170.881 571.363L171.485 570.758L173.905 568.339L173.3 564.105Z" fill="white" stroke="black"/>
<path d="M173.905 571.363L175.114 591.928L170.276 587.694H164.832L167.856 583.46L167.251 571.968H169.066L172.09 571.363H173.905Z" fill="#FDFDFD" stroke="black"/>
<path d="M187.964 567.75V566.281H183.978C183.159 566.856 182.698 567.175 181.879 567.75C181.061 568.325 179.152 568.38 179.152 568.38C177.679 568.543 176.369 568.77 174.955 569.219C173.629 569.639 172.857 570.268 172.857 570.268L171.598 570.898H174.116" fill="white"/>
<path d="M187.964 567.75V566.281H183.978C183.159 566.856 182.698 567.175 181.879 567.75C181.061 568.325 179.152 568.38 179.152 568.38C177.679 568.543 176.369 568.77 174.955 569.219C173.629 569.639 172.857 570.268 172.857 570.268L171.598 570.898H174.116" stroke="black" stroke-linecap="round"/>
<path d="M169.918 569.639L174.954 568.17V566.491L181.039 565.652L182.088 565.442L182.927 565.862V566.911" fill="white"/>
<path d="M169.918 569.639L174.954 568.17V566.491L181.039 565.652L182.088 565.442L182.927 565.862V566.911" stroke="black" stroke-linecap="round"/>
<path d="M171.596 571.527H170.547V572.367L171.596 573.626H172.226" fill="white"/>
<path d="M171.596 571.527H170.547V572.367L171.596 573.626H172.226" stroke="black" stroke-linecap="round"/>
<path d="M172.643 574.675H171.594ZM171.594 574.675L169.496 572.157H167.188L168.656 574.675H171.594Z" fill="white"/>
<path d="M172.643 574.675H171.594M171.594 574.675L169.496 572.157H167.188L168.656 574.675H171.594Z" stroke="black" stroke-linecap="round"/>
<path d="M165.305 569.849L167.193 572.157Z" fill="white"/>
<path d="M165.305 569.849L167.193 572.157" stroke="black" stroke-linecap="round"/>
<path d="M165.305 574.045L167.403 576.563Z" fill="white"/>
<path d="M165.305 574.045L167.403 576.563" stroke="black" stroke-linecap="round"/>
<path d="M165.516 578.242L167.614 580.55Z" fill="white"/>
<path d="M165.516 578.242L167.614 580.55" stroke="black" stroke-linecap="round"/>
<path d="M167.614 583.278H165.516V586.425" fill="white"/>
<path d="M167.614 583.278H165.516V586.425" stroke="black" stroke-linecap="round"/>
<path d="M164.678 586.215V583.278H162.789V586.215" fill="white"/>
<path d="M164.678 586.215V583.278H162.789V586.215" stroke="black" stroke-linecap="round"/>
<path d="M140.755 574.045H155.233L153.345 574.465L151.037 575.095L149.568 575.304H146.211V575.095H139.496L139.706 574.675H140.126V574.465H140.755V574.045Z" fill="white" stroke="black" stroke-linecap="round"/>
<path d="M152.081 574.675H140.121Z" fill="white"/>
<path d="M152.081 574.675H140.121" stroke="black" stroke-linecap="round"/>
<path d="M155.232 574.045V576.983H153.973M153.973 576.983V574.465H153.344V576.983H153.973Z" fill="white"/>
<path d="M155.232 574.045V576.983H153.973M153.973 576.983V574.465H153.344V576.983H153.973Z" stroke="black" stroke-linecap="round"/>
<path d="M146.422 575.514L146.632 577.403L147.786 577.193M147.786 577.193H149.15V579.501H147.891L147.786 577.193Z" fill="white"/>
<path d="M146.422 575.514L146.632 577.403L147.786 577.193M147.786 577.193H149.15V579.501H147.891L147.786 577.193Z" stroke="black" stroke-linecap="round"/>
<path d="M146.633 577.612V579.291Z" fill="white"/>
<path d="M146.633 577.612V579.291" stroke="black" stroke-linecap="round"/>
<path d="M145.371 578.032V582.858Z" fill="white"/>
<path d="M145.371 578.032V582.858" stroke="black" stroke-linecap="round"/>
<path d="M148.727 575.304V577.193Z" fill="white"/>
<path d="M148.727 575.304V577.193" stroke="black" stroke-linecap="round"/>
<path d="M154.814 579.291V577.193H153.555V579.291H154.814Z" fill="white" stroke="black" stroke-linecap="round"/>
<path d="M152.293 574.885V577.613ZM152.293 577.613L153.342 576.983V579.291H152.293V577.613Z" fill="white"/>
<path d="M152.293 574.885V577.613M152.293 577.613L153.342 576.983V579.291H152.293V577.613Z" stroke="black" stroke-linecap="round"/>
<path d="M151.247 577.613V575.304H149.988V578.032L151.247 577.613Z" fill="white" stroke="black" stroke-linecap="round"/>
<path d="M152.296 577.612H151.457L150.198 578.032M150.198 578.032V579.291H149.148V578.032H150.198Z" fill="white"/>
<path d="M152.296 577.612H151.457L150.198 578.032M150.198 578.032V579.291H149.148V578.032H150.198Z" stroke="black" stroke-linecap="round"/>
<path d="M145.161 575.304V578.032H143.902" fill="white"/>
<path d="M145.161 575.304V578.032H143.902" stroke="black" stroke-linecap="round"/>
<path d="M144.316 581.18L146.205 580.55Z" fill="white"/>
<path d="M144.316 581.18L146.205 580.55" stroke="black" stroke-linecap="round"/>
<path d="M145.16 578.032L147.468 577.402Z" fill="white"/>
<path d="M145.16 578.032L147.468 577.402" stroke="black" stroke-linecap="round"/>
<path d="M158.59 579.711L159.849 579.501V579.92L160.898 579.501V579.92L162.157 579.501V584.537" fill="white" stroke="black" stroke-linecap="round"/>
<path d="M158.781 585.879V580.435L159.991 579.831H161.805L162.41 584.065L158.781 585.879Z" fill="white" stroke="black"/>
<path d="M150.918 591.928L157.571 589.508L159.386 591.323L158.781 594.952L157.571 595.557V597.976H150.918V591.928Z" fill="white" stroke="black"/>
<path d="M150.404 585.166H138.234L146.208 582.858H157.958L150.404 585.166Z" fill="white" stroke="black" stroke-linecap="round"/>
<path d="M138.027 597.966V585.166H150.617V598.176L138.027 597.966Z" fill="white" stroke="black" stroke-linecap="round"/>
<path d="M138.027 588.314H150.407Z" fill="white"/>
<path d="M138.027 588.314H150.407" stroke="black" stroke-linecap="round"/>
<path d="M138.027 591.671H150.407Z" fill="white"/>
<path d="M138.027 591.671H150.407" stroke="black" stroke-linecap="round"/>
<path d="M138.027 595.028H150.407Z" fill="white"/>
<path d="M138.027 595.028H150.407" stroke="black" stroke-linecap="round"/>
<path d="M146.422 582.648V579.501H158.592V582.648H146.422Z" fill="white" stroke="black" stroke-linecap="round"/>
<path d="M151.664 584.747V593.14Z" fill="white"/>
<path d="M151.664 584.747V593.14" stroke="black" stroke-linecap="round"/>
<path d="M152.504 584.537V592.93Z" fill="white"/>
<path d="M152.504 584.537V592.93" stroke="black" stroke-linecap="round"/>
<path d="M153.766 584.117V592.51Z" fill="white"/>
<path d="M153.766 584.117V592.51" stroke="black" stroke-linecap="round"/>
<path d="M155.027 584.117V592.51Z" fill="white"/>
<path d="M155.027 584.117V592.51" stroke="black" stroke-linecap="round"/>
<path d="M156.281 583.698V586.425Z" fill="white"/>
<path d="M156.281 583.698V586.425" stroke="black" stroke-linecap="round"/>
<path d="M157.539 583.278V586.425Z" fill="white"/>
<path d="M157.539 583.278V586.425" stroke="black" stroke-linecap="round"/>
<path d="M158.801 582.858V586.006Z" fill="white"/>
<path d="M158.801 582.858V586.006" stroke="black" stroke-linecap="round"/>
<path d="M160.062 582.438V585.376Z" fill="white"/>
<path d="M160.062 582.438V585.376" stroke="black" stroke-linecap="round"/>
<path d="M150.617 588.314L155.443 587.055Z" fill="white"/>
<path d="M150.617 588.314L155.443 587.055" stroke="black" stroke-linecap="round"/>
<path d="M150.828 591.671L157.752 589.363Z" fill="white"/>
<path d="M150.828 591.671L157.752 589.363" stroke="black" stroke-linecap="round"/>
<path d="M136.559 581.599H142.853V578.662H136.559V581.599Z" fill="white" stroke="black" stroke-linecap="round"/>
<path d="M144.107 581.179V583.278L142.928 583.672M142.928 583.672L142.848 583.697V581.599H136.973V585.166H137.812L142.928 583.672Z" fill="white"/>
<path d="M144.107 581.179V583.278L142.928 583.672M142.928 583.672L142.848 583.697V581.599H136.973V585.166H137.812L142.928 583.672Z" stroke="black" stroke-linecap="round"/>
<path d="M143.897 581.18V578.242H138.232L136.973 578.662H142.848V581.599L143.897 581.18Z" fill="white" stroke="black" stroke-linecap="round"/>
<path d="M143.904 578.242L142.645 578.662Z" fill="white"/>
<path d="M143.904 578.242L142.645 578.662" stroke="black" stroke-linecap="round"/>
<path d="M413.952 595.238H414.582V602.582H413.952V601.533H412.273V593.979L413.952 595.238Z" fill="white" stroke="black" stroke-linecap="round"/>
<path d="M412.376 588.129L412.481 588.188V589.887L414.159 591.23V588.414L411.012 586.006V587.349L412.376 588.129Z" fill="white" stroke="black" stroke-linecap="round"/>
<path d="M414.371 588.314H430.947L427.17 585.796L411.004 585.274" fill="white"/>
<path d="M414.371 588.314H430.947L427.17 585.796L411.004 585.274" stroke="black" stroke-linecap="round"/>
<path d="M392.554 582.648H376.816Z" fill="white"/>
<path d="M392.554 582.648H376.816" stroke="black" stroke-linecap="round"/>
<path d="M396.328 598.805H411.855V602.162H396.328V598.805Z" fill="white" stroke="black" stroke-linecap="round"/>
<path d="M396.33 594.818L394.441 592.93Z" fill="white"/>
<path d="M396.33 594.818L394.441 592.93" stroke="black" stroke-linecap="round"/>
<path d="M396.321 598.176L394.223 596.077Z" fill="white"/>
<path d="M396.321 598.176L394.223 596.077" stroke="black" stroke-linecap="round"/>
<path d="M409.126 586.425V585.376H394.438M394.438 585.376V586.425L394.228 589.153H392.969V585.376H394.438Z" fill="white"/>
<path d="M409.126 586.425V585.376H394.438M394.438 585.376V586.425L394.228 589.153H392.969V585.376H394.438Z" stroke="black" stroke-linecap="round"/>
<path d="M408.283 585.166L407.234 584.747H393.176V585.166" fill="white"/>
<path d="M408.283 585.166L407.234 584.747H393.176V585.166" stroke="black" stroke-linecap="round"/>
<path d="M406.608 583.907V584.747H392.969V583.907H406.608Z" fill="white" stroke="black" stroke-linecap="round"/>
<path d="M392.969 583.278H406.398L405.978 582.648H392.969V583.278Z" fill="white" stroke="black" stroke-linecap="round"/>
<path d="M406.398 583.278V583.697Z" fill="white"/>
<path d="M406.398 583.278V583.697" stroke="black" stroke-linecap="round"/>
<path d="M396.745 595.238H412.063V598.595H396.535L396.745 595.238Z" fill="white" stroke="black" stroke-linecap="round"/>
<path d="M396.746 591.461H412.064V595.238H396.746V591.461Z" fill="white" stroke="black" stroke-linecap="round"/>
<path d="M412.063 588.524H397.165ZM397.165 588.524L396.535 588.104V590.832L397.165 591.461V588.524Z" fill="white"/>
<path d="M412.063 588.524H397.165M397.165 588.524L396.535 588.104V590.832L397.165 591.461V588.524Z" stroke="black" stroke-linecap="round"/>
<path d="M375.317 582.25H361.406H360.801V583.46H375.317V582.25Z" fill="white" stroke="black"/>
<path d="M412.066 588.524V591.251Z" fill="white"/>
<path d="M412.066 588.524V591.251" stroke="black" stroke-linecap="round"/>
<path d="M412.066 588.314L410.177 587.055H395.699L397.168 588.314" fill="white"/>
<path d="M412.066 588.314L410.177 587.055H395.699L397.168 588.314" stroke="black" stroke-linecap="round"/>
<path d="M409.127 586.425L410.176 587.055H395.698L394.648 586.216L409.127 586.425Z" fill="white" stroke="black" stroke-linecap="round"/>
<path d="M394.435 586.216L394.318 589.573ZM394.318 589.573L394.016 598.176L396.114 601.953L396.534 591.251L394.318 589.573Z" fill="white"/>
<path d="M394.435 586.216L394.318 589.573M394.318 589.573L394.016 598.176L396.114 601.953L396.534 591.251L394.318 589.573Z" stroke="black" stroke-linecap="round"/>
<path d="M378.488 599.015H393.806V601.533H378.488V599.015Z" fill="white" stroke="black" stroke-linecap="round"/>
<path d="M393.6 595.448H378.703ZM393.6 595.448V598.805H378.703V595.448M393.6 595.448L393.181 594.609ZM378.703 595.448V594.399ZM393.181 594.609L378.703 594.399ZM393.181 594.609H393.6V591.042L392.551 589.783L377.863 589.573L378.703 590.622V594.399" fill="white"/>
<path d="M393.6 595.448H378.703M393.6 595.448V598.805H378.703V595.448M393.6 595.448L393.181 594.609M378.703 595.448V594.399M393.181 594.609L378.703 594.399M393.181 594.609H393.6V591.042L392.551 589.783L377.863 589.573L378.703 590.622V594.399" stroke="black" stroke-linecap="round"/>
<path d="M393.391 591.041L378.703 590.832Z" fill="white"/>
<path d="M393.391 591.041L378.703 590.832" stroke="black" stroke-linecap="round"/>
<path d="M392.761 586.425L391.712 585.586L377.863 585.376L378.283 586.216M392.761 586.425V589.573H378.283V586.216M392.761 586.425L378.283 586.216Z" fill="white"/>
<path d="M392.761 586.425L391.712 585.586L377.863 585.376L378.283 586.216M392.761 586.425V589.573H378.283V586.216M392.761 586.425L378.283 586.216" stroke="black" stroke-linecap="round"/>
<path d="M391.924 581.599L392.763 582.648V585.166H376.606V582.439L375.977 581.389L391.924 581.599Z" fill="white" stroke="black" stroke-linecap="round"/>
<path d="M375.762 581.389V584.327L376.391 585.166" fill="white"/>
<path d="M375.762 581.389V584.327L376.391 585.166" stroke="black" stroke-linecap="round"/>
<path d="M375.972 585.166H377.65V589.783V596.287H376.601L376.391 598.176L375.762 598.595L375.972 585.166Z" fill="white" stroke="black" stroke-linecap="round"/>
<path d="M377.652 585.376V589.573Z" fill="white"/>
<path d="M377.652 585.376V589.573" stroke="black" stroke-linecap="round"/>
<path d="M340.302 597.756H325.824V600.903H340.302V597.756Z" fill="white" stroke="black" stroke-linecap="round"/>
<path d="M340.302 594.818H325.824V597.966H340.302V594.818Z" fill="white" stroke="black" stroke-linecap="round"/>
<path d="M340.302 591.251H325.824V594.608H340.302V591.251Z" fill="white" stroke="black" stroke-linecap="round"/>
<path d="M340.513 587.684H326.035V591.251H340.513V587.684Z" fill="white" stroke="black" stroke-linecap="round"/>
<path d="M340.723 584.327H326.035V587.684H340.723V584.327Z" fill="white" stroke="black" stroke-linecap="round"/>
<path d="M340.724 580.76H326.246V584.327H340.724V580.76Z" fill="white" stroke="black" stroke-linecap="round"/>
<path d="M325.721 584.327L325.191 584.065V580.55H341.558V584.327H340.719" fill="white"/>
<path d="M325.721 584.327L325.191 584.065V580.55H341.558V584.327H340.719" stroke="black" stroke-linecap="round"/>
<path d="M325.191 580.55L325.611 579.711H341.138L341.558 580.55" fill="white"/>
<path d="M325.191 580.55L325.611 579.711H341.138L341.558 580.55" stroke="black" stroke-linecap="round"/>
<path d="M357.508 595.448H343.449V597.966H349.954V598.805H351.003V597.966H357.508V595.448Z" fill="white" stroke="black" stroke-linecap="round"/>
<path d="M343.449 592.091H357.508V595.238H343.449V592.091Z" fill="white" stroke="black" stroke-linecap="round"/>
<path d="M343.664 588.314H357.513V592.091H343.664V588.314Z" fill="white" stroke="black" stroke-linecap="round"/>
<path d="M343.449 585.166H357.718V588.314H343.449V585.166Z" fill="white" stroke="black" stroke-linecap="round"/>
<path d="M358.558 582.019L358.138 580.76H342.82V582.019" fill="white"/>
<path d="M358.558 582.019L358.138 580.76H342.82V582.019" stroke="black" stroke-linecap="round"/>
<path d="M375.764 597.966H360.656V601.743H375.974L375.764 597.966Z" fill="white" stroke="black" stroke-linecap="round"/>
<path d="M375.762 595.238H361.074V597.966H375.762V595.238Z" fill="white" stroke="black" stroke-linecap="round"/>
<path d="M361.074 591.461H375.762V595.029H361.074V591.461Z" fill="white" stroke="black" stroke-linecap="round"/>
<path d="M360.025 590.202L360.864 591.252V598.176L360.025 598.386V595.448L359.605 594.609L360.025 590.202Z" fill="white" stroke="black" stroke-linecap="round"/>
<path d="M360.445 590.412H375.973V591.251H361.075L360.445 590.412Z" fill="white" stroke="black" stroke-linecap="round"/>
<path d="M366.742 583.488L367.581 584.747H360.657L360.027 583.488H366.742Z" fill="white" stroke="black" stroke-linecap="round"/>
<path d="M360.652 584.956V587.474L359.812 586.845V583.488" fill="white"/>
<path d="M360.652 584.956V587.474L359.812 586.845V583.488" stroke="black" stroke-linecap="round"/>
<path d="M375.135 583.907L375.975 584.956H368.84L368.211 583.907H375.135Z" fill="white" stroke="black" stroke-linecap="round"/>
<path d="M375.974 584.956V587.894H368.839M368.839 587.894V584.956L368 583.907V590.202H368.839V587.894Z" fill="white"/>
<path d="M375.974 584.956V587.894H368.839M368.839 587.894V584.956L368 583.907V590.202H368.839V587.894Z" stroke="black" stroke-linecap="round"/>
<path d="M375.977 588.104V590.412Z" fill="white"/>
<path d="M375.977 588.104V590.412" stroke="black" stroke-linecap="round"/>
<path d="M360.655 583.488V582.019L360.236 580.34L360.131 582.019M360.131 582.019L360.026 583.697V590.622L359.606 594.608L358.977 593.559L359.186 580.97L359.606 582.019H360.131Z" fill="white"/>
<path d="M360.655 583.488V582.019L360.236 580.34L360.131 582.019M360.131 582.019L360.026 583.697V590.622L359.606 594.608L358.977 593.559L359.186 580.97L359.606 582.019H360.131Z" stroke="black" stroke-linecap="round"/>
<path d="M360.238 581.179H359.398Z" fill="white"/>
<path d="M360.238 581.179H359.398" stroke="black" stroke-linecap="round"/>
<path d="M360.658 582.019L360.238 580.34H374.087L374.926 582.019H360.658ZM360.658 582.019V583.488H366.743L366.953 583.697H374.926V582.019" fill="white"/>
<path d="M360.658 582.019L360.238 580.34H374.087L374.926 582.019M360.658 582.019H374.926M360.658 582.019V583.488H366.743L366.953 583.697H374.926V582.019" stroke="black" stroke-linecap="round"/>
<path d="M367.79 584.957V587.894H360.656" fill="white"/>
<path d="M367.79 584.957V587.894H360.656" stroke="black" stroke-linecap="round"/>
<path d="M308.199 584.957H292.672L293.008 584.537H308.409L308.199 584.957Z" fill="white" stroke="black" stroke-linecap="round"/>
<path d="M305.679 590.202H291.41V593.56H305.679V590.202Z" fill="white" stroke="black" stroke-linecap="round"/>
<path d="M291.41 590.202L293.299 588.104H307.147M307.147 588.104L305.679 590.202V593.35L307.147 591.671V588.104Z" fill="white"/>
<path d="M291.41 590.202L293.299 588.104H307.147M307.147 588.104L305.679 590.202V593.35L307.147 591.671V588.104Z" stroke="black" stroke-linecap="round"/>
<path d="M307.15 588.104V585.166H292.672V588.733L293.301 588.104H307.15Z" fill="white" stroke="black" stroke-linecap="round"/>
<path d="M307.148 588.104H308.407V584.747" fill="white"/>
<path d="M307.148 588.104H308.407V584.747" stroke="black" stroke-linecap="round"/>
<path d="M309.875 595.028V597.756H323.724V595.028H309.875Z" fill="white" stroke="black" stroke-linecap="round"/>
<path d="M308.199 600.274L309.458 597.756H316.383M317.432 597.756H323.517L323.307 600.693H316.383L317.432 597.756ZM317.432 597.756H316.383ZM316.383 597.756L315.333 600.693L308.199 600.484" fill="white"/>
<path d="M308.199 600.274L309.458 597.756H316.383M316.383 597.756H317.432M316.383 597.756L315.333 600.693L308.199 600.484M317.432 597.756H323.517L323.307 600.693H316.383L317.432 597.756Z" stroke="black" stroke-linecap="round"/>
<path d="M309.875 591.881V595.029H323.724L324.143 594.609V591.881H309.875Z" fill="white" stroke="black" stroke-linecap="round"/>
<path d="M309.246 588.524V591.671H324.564V588.524M309.246 588.524L309.456 587.894H324.564V588.524M309.246 588.524H324.564Z" fill="white"/>
<path d="M309.246 588.524V591.671H324.564V588.524M309.246 588.524L309.456 587.894H324.564V588.524M309.246 588.524H324.564" stroke="black" stroke-linecap="round"/>
<path d="M309.668 587.684V584.327H325.195V587.684H309.668Z" fill="white" stroke="black" stroke-linecap="round"/>
<path d="M291.41 593.56V596.917L305.679 597.127M305.679 597.127V593.56L307.147 591.881V595.029L306.518 595.238L306.308 597.127H305.679Z" fill="white"/>
<path d="M291.41 593.56V596.917L305.679 597.127M305.679 597.127V593.56L307.147 591.881V595.029L306.518 595.238L306.308 597.127H305.679Z" stroke="black" stroke-linecap="round"/>
<path d="M305.759 593.742H291.848V596.766H305.759V593.742Z" fill="white" stroke="black"/>
<path d="M306.969 588.299H293.057L291.848 590.113H305.154L306.969 588.299Z" fill="white" stroke="black"/>
<path d="M307.574 588.299H309.389V591.928V597.371L308.179 599.186L307.574 597.371V588.299Z" fill="white" stroke="black"/>
<path d="M323.905 600.396H342.655V602.21H306.969V600.396H323.905Z" fill="white" stroke="black"/>
<path d="M368.664 584.669H360.801V587.694H368.664V584.669Z" fill="white" stroke="black"/>
<path d="M291.41 596.917V600.064H306.098V597.127" fill="white"/>
<path d="M291.41 596.917V600.064H306.098V597.127" stroke="black" stroke-linecap="round"/>
<path d="M279.659 576.773L277.141 578.242Z" fill="white"/>
<path d="M279.659 576.773L277.141 578.242" stroke="black" stroke-linecap="round"/>
<path d="M276.938 580.436L292.045 580.436V584.747L276.938 584.327V580.436Z" fill="white" stroke="black" stroke-linecap="round"/>
<path d="M271.892 579.226L273.304 576.806H273.707L273.303 593.742L271.488 594.347L271.892 579.226Z" fill="white" stroke="black"/>
<path d="M276.938 580.55H292.675V583.488L292.045 584.537" fill="white"/>
<path d="M276.938 580.55H292.675V583.488L292.045 584.537" stroke="black" stroke-linecap="round"/>
<path d="M292.675 580.34L291.836 581.389Z" fill="white"/>
<path d="M292.675 580.34L291.836 581.389" stroke="black" stroke-linecap="round"/>
<path d="M275.676 584.747H291.623V588.104H275.676V584.747Z" fill="white" stroke="black" stroke-linecap="round"/>
<path d="M276.123 582.25L273.703 584.065V587.089H274.913L276.123 585.274L276.727 584.669L276.123 582.25Z" fill="white" stroke="black"/>
<path d="M275.517 592.533L274.307 591.928L273.098 593.137V599.791H276.122L275.517 592.533Z" fill="white" stroke="black"/>
<path d="M289.316 595.448H275.887V599.225H288.896L289.316 597.127V595.448Z" fill="white" stroke="black" stroke-linecap="round"/>
<path d="M290.155 591.881H275.887V595.448H289.316V594.819H290.155V591.881Z" fill="white" stroke="black" stroke-linecap="round"/>
<path d="M290.574 588.524H275.047V592.091H289.945V593.769H290.574V588.524Z" fill="white" stroke="black" stroke-linecap="round"/>
<path d="M231.609 575.514L235.176 574.675H247.976M247.976 574.675L246.507 575.514V580.34H248.396V578.871L249.445 578.242V575.514H247.976V574.675Z" fill="white"/>
<path d="M231.609 575.514L235.176 574.675H247.976M247.976 574.675L246.507 575.514V580.34H248.396V578.871L249.445 578.242V575.514H247.976V574.675Z" stroke="black" stroke-linecap="round"/>
<path d="M256.999 579.081H248.605L250.284 578.032H257.838" fill="white"/>
<path d="M256.999 579.081H248.605L250.284 578.032H257.838" stroke="black" stroke-linecap="round"/>
<path d="M260.988 576.354V574.045ZM260.988 574.045H274.417V577.193L276.935 575.934V572.996H263.087L260.988 574.045Z" fill="white"/>
<path d="M260.988 576.354V574.045M260.988 574.045H274.417V577.193L276.935 575.934V572.996H263.087L260.988 574.045Z" stroke="black" stroke-linecap="round"/>
<path d="M274.418 574.255L276.726 572.996Z" fill="white"/>
<path d="M274.418 574.255L276.726 572.996" stroke="black" stroke-linecap="round"/>
<path d="M273.996 580.55L276.934 579.081V576.144" fill="white"/>
<path d="M273.996 580.55L276.934 579.081V576.144" stroke="black" stroke-linecap="round"/>
<path d="M274.211 583.697L276.729 582.019V579.501" fill="white"/>
<path d="M274.211 583.697L276.729 582.019V579.501" stroke="black" stroke-linecap="round"/>
<path d="M276.938 575.304L279.665 573.626V580.34H276.938" fill="white"/>
<path d="M276.938 575.304L279.665 573.626V580.34H276.938" stroke="black" stroke-linecap="round"/>
<path d="M276.938 573.416H279.455Z" fill="white"/>
<path d="M276.938 573.416H279.455" stroke="black" stroke-linecap="round"/>
<path d="M242.1 580.76L239.582 581.809Z" fill="white"/>
<path d="M242.1 580.76L239.582 581.809" stroke="black" stroke-linecap="round"/>
<path d="M242.311 584.117L239.793 585.166Z" fill="white"/>
<path d="M242.311 584.117L239.793 585.166" stroke="black" stroke-linecap="round"/>
<path d="M241.051 587.894L239.582 588.524Z" fill="white"/>
<path d="M241.051 587.894L239.582 588.524" stroke="black" stroke-linecap="round"/>
<path d="M257.207 578.452V599.644H264.551L264.131 578.452H257.207Z" fill="white" stroke="black" stroke-linecap="round"/>
<path d="M264.133 581.179H257.418Z" fill="white"/>
<path d="M264.133 581.179H257.418" stroke="black" stroke-linecap="round"/>
<path d="M271.691 581.179H264.977Z" fill="white"/>
<path d="M271.691 581.179H264.977" stroke="black" stroke-linecap="round"/>
<path d="M271.898 578.452H265.184V596.707H271.898V578.452Z" fill="white" stroke="black" stroke-linecap="round"/>
<path d="M265.184 599.644H272.108V596.707H265.184V599.644Z" fill="white" stroke="black" stroke-linecap="round"/>
<path d="M265.391 578.452L267.699 576.983L273.574 577.193L271.895 578.452" fill="white"/>
<path d="M265.391 578.452L267.699 576.983L273.574 577.193L271.895 578.452" stroke="black" stroke-linecap="round"/>
<path d="M273.998 577.193V592.51L272.109 593.979" stroke="black" stroke-linecap="round"/>
<path d="M274.307 573.782H261V576.202L268.863 576.806H274.307V573.782Z" fill="white" stroke="black"/>
<path d="M273.703 577.411L276.123 576.202H276.727V584.67H275.518L274.913 588.299L273.703 587.694V577.411Z" stroke="black"/>
<path d="M276.727 576.202L274.308 577.411H273.703V580.436L276.727 579.226V576.202Z" fill="white" stroke="black"/>
<path d="M273.998 580.55L272.109 581.389Z" fill="white"/>
<path d="M273.998 580.55L272.109 581.389" stroke="black" stroke-linecap="round"/>
<path d="M273.788 583.907L272.109 584.747Z" fill="white"/>
<path d="M273.788 583.907L272.109 584.747" stroke="black" stroke-linecap="round"/>
<path d="M257.207 578.452L260.354 576.563L267.048 576.807L264.341 578.452" fill="white"/>
<path d="M257.207 578.452L260.354 576.563L267.048 576.807L264.341 578.452" stroke="black" stroke-linecap="round"/>
<path d="M342.656 597.976H358.987V602.21H342.656V597.976Z" fill="white" stroke="black"/>
<path d="M267.281 576.773V577.193Z" fill="white"/>
<path d="M267.281 576.773V577.193" stroke="black" stroke-linecap="round"/>
<path d="M274.208 586.635L272.109 587.684Z" fill="white"/>
<path d="M274.208 586.635L272.109 587.684" stroke="black" stroke-linecap="round"/>
<path d="M274.208 589.992L272.109 591.042Z" fill="white"/>
<path d="M274.208 589.992L272.109 591.042" stroke="black" stroke-linecap="round"/>
<path d="M264.133 584.537H257.418Z" fill="white"/>
<path d="M264.133 584.537H257.418" stroke="black" stroke-linecap="round"/>
<path d="M271.691 584.537H264.977Z" fill="white"/>
<path d="M271.691 584.537H264.977" stroke="black" stroke-linecap="round"/>
<path d="M264.133 587.894H257.418Z" fill="white"/>
<path d="M264.133 587.894H257.418" stroke="black" stroke-linecap="round"/>
<path d="M271.691 587.894H264.977Z" fill="white"/>
<path d="M271.691 587.894H264.977" stroke="black" stroke-linecap="round"/>
<path d="M264.133 590.832H257.418Z" fill="white"/>
<path d="M264.133 590.832H257.418" stroke="black" stroke-linecap="round"/>
<path d="M271.691 590.832H264.977Z" fill="white"/>
<path d="M271.691 590.832H264.977" stroke="black" stroke-linecap="round"/>
<path d="M264.133 593.769H257.418Z" fill="white"/>
<path d="M264.133 593.769H257.418" stroke="black" stroke-linecap="round"/>
<path d="M272.105 593.769H265.391Z" fill="white"/>
<path d="M272.105 593.769H265.391" stroke="black" stroke-linecap="round"/>
<path d="M264.133 596.707H257.418Z" fill="white"/>
<path d="M264.133 596.707H257.418" stroke="black" stroke-linecap="round"/>
<path d="M272.105 596.707H265.391Z" fill="white"/>
<path d="M272.105 596.707H265.391" stroke="black" stroke-linecap="round"/>
<path d="M224.27 583.698L224.899 582.648Z" fill="white"/>
<path d="M224.27 583.698L224.899 582.648" stroke="black" stroke-linecap="round"/>
<path d="M225.109 579.711H238.538V582.858H225.109V579.711Z" fill="white" stroke="black" stroke-linecap="round"/>
<path d="M237.91 587.055V583.698H224.48V587.055H237.91Z" fill="white" stroke="black" stroke-linecap="round"/>
<path d="M238.749 582.858V586.215L238.119 586.845V583.697M238.749 582.858H224.9L224.48 583.697H238.119M238.749 582.858L238.119 583.697Z" fill="white"/>
<path d="M238.749 582.858V586.215L238.119 586.845V583.697M238.749 582.858H224.9L224.48 583.697H238.119M238.749 582.858L238.119 583.697" stroke="black" stroke-linecap="round"/>
<path d="M238.326 590.202H224.688V593.35H238.326V590.202ZM238.326 590.202L239.585 589.783V592.51" fill="white"/>
<path d="M238.326 590.202H224.688V593.35H238.326V590.202ZM238.326 590.202L239.585 589.783V592.51" stroke="black" stroke-linecap="round"/>
<path d="M238.533 596.287H224.895V593.559H238.533V596.287Z" fill="white" stroke="black" stroke-linecap="round"/>
<path d="M224.895 596.287V599.225H238.743V596.287" fill="white"/>
<path d="M224.895 596.287V599.225H238.743V596.287" stroke="black" stroke-linecap="round"/>
<path d="M239.164 579.291V594.399Z" fill="white"/>
<path d="M239.164 579.291V594.399" stroke="black" stroke-linecap="round"/>
<path d="M238.538 579.711L238.958 579.291H225.949L225.109 579.711" fill="white"/>
<path d="M238.538 579.711L238.958 579.291H225.949L225.109 579.711" stroke="black" stroke-linecap="round"/>
<path d="M211.68 591.461L213.568 590.622H224.269V591.461L223.43 592.72L211.68 592.301V591.461Z" fill="white" stroke="black" stroke-linecap="round"/>
<path d="M208.111 573.835L201.816 575.514H215.875L219.652 574.255L208.111 573.835Z" fill="white" stroke="black" stroke-linecap="round"/>
<path d="M219.647 574.255V577.403L215.66 578.662V575.724" fill="white"/>
<path d="M219.647 574.255V577.403L215.66 578.662V575.724" stroke="black" stroke-linecap="round"/>
<path d="M215.661 578.452H211.465Z" fill="white"/>
<path d="M215.661 578.452H211.465" stroke="black" stroke-linecap="round"/>
<path d="M201.816 575.514V576.773Z" fill="white"/>
<path d="M201.816 575.514V576.773" stroke="black" stroke-linecap="round"/>
<path d="M219.858 579.711V577.612L215.452 578.452H211.465V585.166H213.773V583.697L216.081 582.438V579.711H219.858Z" fill="white" stroke="black" stroke-linecap="round"/>
<path d="M216.086 581.809H211.68Z" fill="white"/>
<path d="M216.086 581.809H211.68" stroke="black" stroke-linecap="round"/>
<path d="M175.376 593.769L174.117 571.108L187.966 567.75L188.805 575.095" fill="white"/>
<path d="M175.376 593.769L174.117 571.108L187.966 567.75L188.805 575.095" stroke="black" stroke-linecap="round"/>
<path d="M166.983 569.639L168.032 582.858L165.305 587.474H170.55L175.376 593.349V598.595" fill="white"/>
<path d="M175.376 598.595V593.349L170.55 587.474H165.305L168.032 582.858L166.983 569.639H164.832V563.5H170.276" stroke="black" stroke-linecap="round"/>
<path d="M438.08 618.949H460.327C460.343 618.483 460.511 617.757 460.931 616.834C461.434 615.734 462.303 614.337 463.738 612.729L472.933 601.936C469.337 602.956 461.711 604.63 455.081 604.475H429.54L426.649 606.124L426.599 606.153H426.54L91.2368 600.492V604.894H81.1776C81.1776 604.894 81.1608 604.894 81.1524 604.894C81.1272 604.894 81.0937 604.899 81.0475 604.903C80.9594 604.907 80.8419 604.911 80.7034 604.903C80.4348 604.89 80.0739 604.836 79.7885 604.643C79.6542 604.555 79.5619 604.391 79.4948 604.231C79.4234 604.064 79.3605 603.85 79.3059 603.619C79.1968 603.153 79.1087 602.582 79.0415 602.028C78.9744 601.474 78.9282 600.933 78.8988 600.53C78.8862 600.337 78.8737 600.178 78.8653 600.064H77.1992L78.0134 607.593C78.0847 608.147 78.1854 608.831 78.7016 609.481C79.222 610.132 80.183 610.778 82.0421 611.189L98.392 614.333L125.863 616.641L195.098 617.9L300.852 619.998L375.543 621.047L438.068 618.949H438.08Z" fill="#F5F5F5" stroke="black" stroke-linecap="round"/>
<path d="M425.912 606.989L358.977 620.418H382.268L441.23 618.739H459.904L460.744 616.221L462.842 613.284L472.704 602.163C460.744 605.94 441.439 604.471 429.479 604.471L425.912 606.989Z" fill="url(#paint1_linear_3746_15132)"/>
<path d="M466.624 619.368C468.639 619.368 470.821 619.927 471.66 620.208C470.401 620.627 467.632 621.467 466.624 621.467C465.617 621.467 463.129 621.047 462.008 620.837H459.49L411.649 622.516L359.192 623.985L297.292 623.145L228.258 621.047L172.863 620.208L129.429 618.529L93.7578 614.123V613.283L104.039 614.752L125.232 616.851H132.786L190.069 617.9L251.34 619.159L298.551 619.998L358.562 620.837L401.577 620.418L460.33 618.949L466.624 619.368Z" fill="white" stroke="black" stroke-linecap="round"/>
<path d="M175.17 596.707H157.125V597.546H159.702V599.225H168.724V597.546H175.17V596.707Z" fill="white" stroke="black" stroke-linecap="round"/>
<path d="M164.253 581.809L163.414 570.059V569.639H166.981L167.82 581.809H164.253Z" fill="white" stroke="black" stroke-linecap="round"/>
<path d="M167.086 573.73H162.68V573.94H167.086V573.73Z" fill="white" stroke="black" stroke-width="0.5"/>
<path d="M167.504 577.927H163.098V578.137H167.504V577.927Z" fill="white" stroke="black" stroke-width="0.5"/>
<path d="M167.613 581.809H162.367V586.425H165.724" fill="white"/>
<path d="M167.613 581.809H162.367V586.425H165.724" stroke="black" stroke-linecap="round"/>
<path d="M162.156 584.747L155.441 587.055L165.513 586.425L164.884 587.684M164.884 587.684H158.169L157.33 588.104H155.441V588.943H158.169L159.218 588.104L164.884 587.684Z" fill="white"/>
<path d="M162.156 584.747L155.441 587.055L165.513 586.425L164.884 587.684M164.884 587.684H158.169L157.33 588.104H155.441V588.943H158.169L159.218 588.104L164.884 587.684Z" stroke="black" stroke-linecap="round"/>
<path d="M163.832 586.635V587.474Z" fill="white"/>
<path d="M163.832 586.635V587.474" stroke="black" stroke-linecap="round"/>
<path d="M162.578 586.635V587.474Z" fill="white"/>
<path d="M162.578 586.635V587.474" stroke="black" stroke-linecap="round"/>
<path d="M161.32 586.635V587.474Z" fill="white"/>
<path d="M161.32 586.635V587.474" stroke="black" stroke-linecap="round"/>
<path d="M160.062 586.635V587.474Z" fill="white"/>
<path d="M160.062 586.635V587.474" stroke="black" stroke-linecap="round"/>
<path d="M161.527 584.957V586.635Z" fill="white"/>
<path d="M161.527 584.957V586.635" stroke="black" stroke-linecap="round"/>
<path d="M160.898 585.376V586.635Z" fill="white"/>
<path d="M160.898 585.376V586.635" stroke="black" stroke-linecap="round"/>
<path d="M160.062 585.796V586.635Z" fill="white"/>
<path d="M160.062 585.796V586.635" stroke="black" stroke-linecap="round"/>
<path d="M159.223 585.796V586.635Z" fill="white"/>
<path d="M159.223 585.796V586.635" stroke="black" stroke-linecap="round"/>
<path d="M158.379 586.006V586.635Z" fill="white"/>
<path d="M158.379 586.006V586.635" stroke="black" stroke-linecap="round"/>
<path d="M158.801 587.055V587.474Z" fill="white"/>
<path d="M158.801 587.055V587.474" stroke="black" stroke-linecap="round"/>
<path d="M157.539 587.055V587.894Z" fill="white"/>
<path d="M157.539 587.055V587.894" stroke="black" stroke-linecap="round"/>
<path d="M156.281 587.055V587.894Z" fill="white"/>
<path d="M156.281 587.055V587.894" stroke="black" stroke-linecap="round"/>
<path d="M190.064 595.658H177.055V598.595H190.064V595.658Z" fill="white" stroke="black"/>
<path d="M174.328 592.091H165.095L164.046 591.251H159.43L157.961 589.153" fill="white" stroke="black" stroke-linecap="round"/>
<path d="M190.07 593.14H176.641V595.238H190.07V593.14Z" fill="white" stroke="black"/>
<path d="M177.262 582.438L180.409 580.76L191.95 581.179L190.061 582.438" fill="white"/>
<path d="M177.262 582.438L180.409 580.76L191.95 581.179L190.061 582.438" stroke="black" stroke-linecap="round"/>
<path d="M191.741 593.769V585.166ZM191.741 585.166V581.389L190.062 582.648V586.215L191.741 585.166Z" fill="white"/>
<path d="M191.741 593.769V585.166M191.741 585.166V581.389L190.062 582.648V586.215L191.741 585.166Z" stroke="black" stroke-linecap="round"/>
<path d="M189.852 589.573L191.95 588.733Z" fill="white"/>
<path d="M189.852 589.573L191.95 588.733" stroke="black" stroke-linecap="round"/>
<path d="M189.852 592.93L191.95 592.091Z" fill="white"/>
<path d="M189.852 592.93L191.95 592.091" stroke="black" stroke-linecap="round"/>
<path d="M216.289 579.711H224.892V582.438H216.289V579.711Z" fill="white" stroke="black" stroke-linecap="round"/>
<path d="M213.77 586.635V583.698H224.261V586.635H213.77Z" fill="white" stroke="black" stroke-linecap="round"/>
<path d="M213.77 590.412V586.635H224.261V590.412H213.77Z" fill="white" stroke="black" stroke-linecap="round"/>
<path d="M215.453 592.51H208.738V595.448H215.453V592.51Z" fill="white" stroke="black" stroke-linecap="round"/>
<path d="M215.458 595.867H208.953V598.595H215.458V595.867Z" fill="white" stroke="black" stroke-linecap="round"/>
<path d="M223.006 592.51H216.711V595.448H223.006V592.51Z" fill="white" stroke="black" stroke-linecap="round"/>
<path d="M223.012 595.867H217.137V598.385H223.012V595.867Z" fill="white" stroke="black" stroke-linecap="round"/>
<path d="M215.453 592.51H216.292L216.502 595.553M216.502 595.553L216.712 598.595H215.453V595.658L216.502 595.553Z" fill="white"/>
<path d="M215.453 592.51H216.292L216.502 595.553M216.502 595.553L216.712 598.595H215.453V595.658L216.502 595.553Z" stroke="black" stroke-linecap="round"/>
<path d="M189.65 589.783H176.641V592.72H189.65V589.783Z" fill="white" stroke="black"/>
<path d="M190.064 586.006H176.215V589.363H190.064V586.006Z" fill="white" stroke="black"/>
<path d="M190.064 582.648H177.055V586.006H190.064V582.648Z" fill="white" stroke="black"/>
<path d="M206.432 595.658H192.164V598.595H206.432V595.658Z" fill="white" stroke="black"/>
<path d="M206.432 592.3H192.164V595.238H206.432V592.3Z" fill="white" stroke="black"/>
<path d="M206.432 588.943H192.164V592.301H206.432V588.943Z" fill="white" stroke="black"/>
<path d="M195.307 576.773H182.508L188.383 575.304H200.763L195.307 576.773Z" fill="white" stroke="black" stroke-linecap="round"/>
<path d="M182.508 576.773V580.13H191.95" fill="white"/>
<path d="M182.508 576.773V580.13H191.95" stroke="black" stroke-linecap="round"/>
<path d="M195.102 576.773V577.612Z" fill="white"/>
<path d="M195.102 576.773V577.612" stroke="black" stroke-linecap="round"/>
<path d="M200.555 575.304V576.773Z" fill="white"/>
<path d="M200.555 575.304V576.773" stroke="black" stroke-linecap="round"/>
<path d="M206.642 578.871L211.259 577.193H196.78L192.164 578.871H206.642Z" fill="white" stroke="black" stroke-linecap="round"/>
<path d="M206.434 582.228L211.469 580.55L211.26 577.402" fill="white"/>
<path d="M206.434 582.228L211.469 580.55L211.26 577.402" stroke="black" stroke-linecap="round"/>
<path d="M211.469 583.697V580.34L206.434 582.438V585.376L211.469 583.697Z" fill="white" stroke="black" stroke-linecap="round"/>
<path d="M211.469 587.055V583.698L206.434 585.796V588.733L211.469 587.055Z" fill="white" stroke="black" stroke-linecap="round"/>
<path d="M211.469 590.412V587.055L206.434 589.153V592.091L211.469 590.412Z" fill="white" stroke="black" stroke-linecap="round"/>
<path d="M206.432 585.586H192.164V588.943H206.432V585.586Z" fill="white" stroke="black"/>
<path d="M206.432 582.648H192.164V585.166H206.432V582.648Z" fill="white" stroke="black"/>
<path d="M206.432 578.871H192.164V582.229H206.432V578.871Z" fill="white" stroke="black"/>
<path d="M207.691 593.979H206.852V595.658H207.691V593.979Z" fill="white" stroke="black"/>
<path d="M208.735 595.658L208.945 598.595L208.525 598.805L208.315 596.287H207.896L208.106 599.225H207.686L207.476 596.287H207.056V599.225H206.637V595.868L207.896 595.658H208.735Z" fill="white" stroke="black" stroke-linecap="round"/>
<path d="M207.061 594.818C207.177 594.818 207.271 594.724 207.271 594.609C207.271 594.493 207.177 594.399 207.061 594.399C206.946 594.399 206.852 594.493 206.852 594.609C206.852 594.724 206.946 594.818 207.061 594.818Z" fill="white" stroke="black"/>
<path d="M223.429 595.238C223.544 595.238 223.638 595.144 223.638 595.028C223.638 594.912 223.544 594.818 223.429 594.818C223.313 594.818 223.219 594.912 223.219 595.028C223.219 595.144 223.313 595.238 223.429 595.238Z" fill="white" stroke="black"/>
<path d="M191.112 594.818C191.228 594.818 191.322 594.724 191.322 594.609C191.322 594.493 191.228 594.399 191.112 594.399C190.996 594.399 190.902 594.493 190.902 594.609C190.902 594.724 190.996 594.818 191.112 594.818Z" fill="white" stroke="black"/>
<path d="M191.95 593.769H190.691V599.015H191.111V596.077H191.531L191.741 599.015H191.95V593.769Z" fill="white" stroke="black" stroke-linecap="round"/>
<path d="M224.058 594.399H223.219V596.077H224.058V594.399Z" fill="white" stroke="black"/>
<path d="M224.263 599.435V596.077H223.004V599.225H223.424V596.497H223.843V599.435H224.263Z" fill="white" stroke="black" stroke-linecap="round"/>
<path d="M239.792 595.238C239.908 595.238 240.002 595.144 240.002 595.028C240.002 594.912 239.908 594.818 239.792 594.818C239.676 594.818 239.582 594.912 239.582 595.028C239.582 595.144 239.676 595.238 239.792 595.238Z" fill="white" stroke="black"/>
<path d="M256.159 595.238C256.275 595.238 256.369 595.144 256.369 595.028C256.369 594.912 256.275 594.818 256.159 594.818C256.043 594.818 255.949 594.912 255.949 595.028C255.949 595.144 256.043 595.238 256.159 595.238Z" fill="white" stroke="black"/>
<path d="M272.944 595.238C273.06 595.238 273.154 595.144 273.154 595.028C273.154 594.912 273.06 594.818 272.944 594.818C272.828 594.818 272.734 594.912 272.734 595.028C272.734 595.144 272.828 595.238 272.944 595.238Z" fill="white" stroke="black"/>
<path d="M289.729 595.868C289.845 595.868 289.939 595.774 289.939 595.658C289.939 595.542 289.845 595.448 289.729 595.448C289.613 595.448 289.52 595.542 289.52 595.658C289.52 595.774 289.613 595.868 289.729 595.868Z" fill="white" stroke="black"/>
<path d="M240.214 594.399V596.287H239.375V594.399H240.214Z" fill="white" stroke="black" stroke-linecap="round"/>
<path d="M256.582 594.399V596.287H255.742V594.399H256.582Z" fill="white" stroke="black" stroke-linecap="round"/>
<path d="M273.367 594.399V596.287H272.527V594.399H273.367Z" fill="white" stroke="black" stroke-linecap="round"/>
<path d="M290.156 595.028V596.917H289.316V595.028H290.156Z" fill="white" stroke="black" stroke-linecap="round"/>
<path d="M240.633 596.497V599.645H240.213V596.917H239.584V599.645H239.164V596.497H240.633Z" fill="white" stroke="black" stroke-linecap="round"/>
<path d="M257.004 596.497V599.645H256.584V596.917H255.955V599.645H255.535V596.497H257.004Z" fill="white" stroke="black" stroke-linecap="round"/>
<path d="M273.789 596.497V599.645H273.369V596.917H272.74V599.645H272.32V596.497H273.789Z" fill="white" stroke="black" stroke-linecap="round"/>
<path d="M290.57 597.126V600.274H290.151V597.546H289.521V600.274H289.102V597.126H290.57Z" fill="white" stroke="black" stroke-linecap="round"/>
<path d="M306.94 596.287C307.056 596.287 307.15 596.193 307.15 596.077C307.15 595.961 307.056 595.867 306.94 595.867C306.824 595.867 306.73 595.961 306.73 596.077C306.73 596.193 306.824 596.287 306.94 596.287Z" fill="white" stroke="black"/>
<path d="M307.359 595.448V597.336H306.52V595.448H307.359Z" fill="white" stroke="black" stroke-linecap="round"/>
<path d="M307.777 597.546V600.694H307.358V597.966H306.728V600.694H306.309V597.546H307.777Z" fill="white" stroke="black" stroke-linecap="round"/>
<path d="M324.147 596.287C324.263 596.287 324.357 596.193 324.357 596.077C324.357 595.961 324.263 595.867 324.147 595.867C324.031 595.867 323.938 595.961 323.938 596.077C323.938 596.193 324.031 596.287 324.147 596.287Z" fill="white" stroke="black"/>
<path d="M324.562 595.448V597.336H323.723V595.448H324.562Z" fill="white" stroke="black" stroke-linecap="round"/>
<path d="M324.981 597.546V600.694H324.561V597.966H323.931V600.694H323.512V597.546H324.981Z" fill="white" stroke="black" stroke-linecap="round"/>
<path d="M341.776 596.707C341.892 596.707 341.986 596.613 341.986 596.497C341.986 596.381 341.892 596.287 341.776 596.287C341.66 596.287 341.566 596.381 341.566 596.497C341.566 596.613 341.66 596.707 341.776 596.707Z" fill="white" stroke="black"/>
<path d="M342.187 595.867V597.756H341.348V595.867H342.187Z" fill="white" stroke="black" stroke-linecap="round"/>
<path d="M342.613 597.966V601.113H342.194V598.385H341.564V601.113H341.145V597.966H342.613Z" fill="white" stroke="black" stroke-linecap="round"/>
<path d="M359.397 597.126C359.513 597.126 359.607 597.033 359.607 596.917C359.607 596.801 359.513 596.707 359.397 596.707C359.281 596.707 359.188 596.801 359.188 596.917C359.188 597.033 359.281 597.126 359.397 597.126Z" fill="white" stroke="black"/>
<path d="M359.816 596.287V598.176H358.977V596.287H359.816Z" fill="white" stroke="black" stroke-linecap="round"/>
<path d="M360.234 598.385V601.533H359.815V598.805H359.185V601.533H358.766V598.385H360.234Z" fill="white" stroke="black" stroke-linecap="round"/>
<path d="M377.026 597.126C377.142 597.126 377.236 597.033 377.236 596.917C377.236 596.801 377.142 596.707 377.026 596.707C376.91 596.707 376.816 596.801 376.816 596.917C376.816 597.033 376.91 597.126 377.026 597.126Z" fill="white" stroke="black"/>
<path d="M377.441 596.287V598.176H376.602V596.287H377.441Z" fill="white" stroke="black" stroke-linecap="round"/>
<path d="M377.859 598.385V601.533H377.44V598.805H376.81V601.533H376.391V598.385H377.859Z" fill="white" stroke="black" stroke-linecap="round"/>
<path d="M225.734 579.291V578.452L227.203 578.242M227.203 578.242V577.612L228.882 577.402H241.891L239.373 578.452L227.203 578.242Z" fill="white"/>
<path d="M225.734 579.291V578.452L227.203 578.242M227.203 578.242V577.612L228.882 577.402H241.891L239.373 578.452L227.203 578.242Z" stroke="black" stroke-linecap="round"/>
<path d="M242.103 577.402V585.166L241.054 586.005V596.287H240.424L240.214 594.399H239.375V578.452" fill="white"/>
<path d="M242.103 577.402V585.166L241.054 586.005V596.287H240.424L240.214 594.399H239.375V578.452" stroke="black" stroke-linecap="round"/>
<path d="M231.824 575.724V577.193H242.106V582.019L245.043 580.55H246.512V575.724H231.824Z" fill="white" stroke="black" stroke-linecap="round"/>
<path d="M242.312 582.019L245.25 580.55L257.001 580.76V581.389L255.532 582.019M242.312 582.019V585.166H255.532V582.019M242.312 582.019H255.532Z" fill="white"/>
<path d="M242.312 582.019L245.25 580.55L257.001 580.76V581.389L255.532 582.019M242.312 582.019V585.166H255.532V582.019M242.312 582.019H255.532" stroke="black" stroke-linecap="round"/>
<path d="M241.051 589.363H255.109V586.006H241.051" fill="white"/>
<path d="M241.051 589.363H255.109V586.006H241.051" stroke="black" stroke-linecap="round"/>
<path d="M255.114 592.72H241.266V589.363L255.114 589.573V592.72Z" fill="white" stroke="black" stroke-linecap="round"/>
<path d="M255.114 596.077H241.266V592.93H255.114V596.077Z" fill="white" stroke="black" stroke-linecap="round"/>
<path d="M255.529 599.644H241.051V596.287L255.529 596.077V599.644Z" fill="white" stroke="black" stroke-linecap="round"/>
<path d="M256.788 581.599L257.208 596.497L256.788 596.287V594.189H255.739V595.868H255.109V586.006L255.319 585.166" fill="white"/>
<path d="M256.788 581.599L257.208 596.497L256.788 596.287V594.189H255.739V595.868H255.109V586.006L255.319 585.166" stroke="black" stroke-linecap="round"/>
<path d="M414.584 599.015L412.066 597.126Z" fill="white"/>
<path d="M414.584 599.015L412.066 597.126" stroke="black" stroke-linecap="round"/>
<path d="M425.279 584.537L424.691 584.117ZM425.279 584.537H410.381ZM425.279 584.537V584.956L426.118 585.586H410.8V587.055H410.381M407.023 582.438H422.341L424.691 584.117M407.023 582.438L409.332 584.117ZM407.023 582.438V584.537L408.073 585.166L408.912 585.376L409.122 586.006L409.332 586.425L409.541 586.635L409.961 586.845L410.381 587.055M409.332 584.117H424.691ZM409.332 584.117L410.381 584.537ZM410.381 584.537V587.055Z" fill="white"/>
<path d="M425.279 584.537L424.691 584.117M425.279 584.537H410.381M425.279 584.537V584.956L426.118 585.586H410.8V587.055H410.381M424.691 584.117L422.341 582.438H407.023M424.691 584.117H409.332M410.381 584.537L409.332 584.117M410.381 584.537V587.055M410.381 587.055L409.961 586.845L409.541 586.635L409.332 586.425L409.122 586.006L408.912 585.376L408.073 585.166L407.023 584.537V582.438M407.023 582.438L409.332 584.117" stroke="black" stroke-linecap="round"/>
<path d="M87.668 588.314V585.166ZM87.668 585.166H91.0252V584.537L87.668 585.166Z" fill="white"/>
<path d="M87.668 588.314V585.166M87.668 585.166H91.0252V584.537L87.668 585.166Z" stroke="black" stroke-linecap="round"/>
<path d="M187.336 569.849V570.268Z" fill="white"/>
<path d="M187.336 569.849V570.268" stroke="black" stroke-linecap="square"/>
<path d="M187.336 574.045V574.465Z" fill="white"/>
<path d="M187.336 574.045V574.465" stroke="black" stroke-linecap="square"/>
<path d="M177.055 572.367V572.786Z" fill="white"/>
<path d="M177.055 572.367V572.786" stroke="black" stroke-linecap="square"/>
<path d="M177.477 576.563V576.983Z" fill="white"/>
<path d="M177.477 576.563V576.983" stroke="black" stroke-linecap="square"/>
<path d="M178.52 580.55V580.97Z" fill="white"/>
<path d="M178.52 580.55V580.97" stroke="black" stroke-linecap="square"/>
<path d="M180.203 579.92V580.34Z" fill="white"/>
<path d="M180.203 579.92V580.34" stroke="black" stroke-linecap="square"/>
<path d="M181.461 579.501V579.92Z" fill="white"/>
<path d="M181.461 579.501V579.92" stroke="black" stroke-linecap="square"/>
<path d="M180.203 575.724V576.144Z" fill="white"/>
<path d="M180.203 575.724V576.144" stroke="black" stroke-linecap="square"/>
<path d="M179.996 571.527V571.947Z" fill="white"/>
<path d="M179.996 571.527V571.947" stroke="black" stroke-linecap="square"/>
<path d="M182.301 571.108V571.527Z" fill="white"/>
<path d="M182.301 571.108V571.527" stroke="black" stroke-linecap="square"/>
<path d="M181.461 571.318V571.737Z" fill="white"/>
<path d="M181.461 571.318V571.737" stroke="black" stroke-linecap="square"/>
<path d="M181.672 575.388V575.808Z" fill="white"/>
<path d="M181.672 575.388V575.808" stroke="black" stroke-linecap="square"/>
<path d="M182.641 575.094V575.514Z" fill="white"/>
<path d="M182.641 575.094V575.514" stroke="black" stroke-linecap="square"/>
<path d="M183.977 574.885V575.304Z" fill="white"/>
<path d="M183.977 574.885V575.304" stroke="black" stroke-linecap="square"/>
<path d="M186.496 570.059V570.478Z" fill="white"/>
<path d="M186.496 570.059V570.478" stroke="black" stroke-linecap="square"/>
<path d="M176.008 572.577V572.996Z" fill="white"/>
<path d="M176.008 572.577V572.996" stroke="black" stroke-linecap="square"/>
<path d="M186.496 574.255V574.675Z" fill="white"/>
<path d="M186.496 574.255V574.675" stroke="black" stroke-linecap="square"/>
<path d="M185.656 570.268V570.688Z" fill="white"/>
<path d="M185.656 570.268V570.688" stroke="black" stroke-linecap="square"/>
<path d="M174.957 572.786V573.206Z" fill="white"/>
<path d="M174.957 572.786V573.206" stroke="black" stroke-linecap="square"/>
<path d="M176.422 576.773V577.193Z" fill="white"/>
<path d="M176.422 576.773V577.193" stroke="black" stroke-linecap="square"/>
<path d="M177.055 580.97V581.389Z" fill="white"/>
<path d="M177.055 580.97V581.389" stroke="black" stroke-linecap="square"/>
<path d="M185.656 574.465V574.885Z" fill="white"/>
<path d="M185.656 574.465V574.885" stroke="black" stroke-linecap="square"/>
<path d="M175.371 576.983V577.403Z" fill="white"/>
<path d="M175.371 576.983V577.403" stroke="black" stroke-linecap="square"/>
<path d="M172.438 577.193V577.612Z" fill="white"/>
<path d="M172.438 577.193V577.612" stroke="black" stroke-linecap="square"/>
<path d="M169.711 577.193V577.612Z" fill="white"/>
<path d="M169.711 577.193V577.612" stroke="black" stroke-linecap="square"/>
<path d="M172.23 572.786V573.626Z" fill="white"/>
<path d="M172.23 572.786V573.626" stroke="black" stroke-linecap="square"/>
<path d="M176.008 581.179V581.599Z" fill="white"/>
<path d="M176.008 581.179V581.599" stroke="black" stroke-linecap="square"/>
<path d="M77 599.854V595.238H78.259V596.917H92.5274V597.546H120.644L143.306 598.385H159.673V599.225H168.905V598.385H177.089L263.328 599.854H306.763V602.372H447.768V595.448L452.175 598.176V604.261H429.513L426.366 606.149L272.771 603.631L91.0586 600.484V604.89H80.7769C78.7626 604.554 78.6786 601.394 78.8885 599.854H77Z" fill="white" stroke="black"/>
<path d="M139.91 584.327H136.973Z" fill="white"/>
<path d="M139.91 584.327H136.973" stroke="black" stroke-linecap="round"/>
<path d="M127.956 589.153V586.216H121.871V589.153H127.956ZM127.956 589.153L129.215 588.943V585.796" fill="white"/>
<path d="M127.956 589.153V586.216H121.871V589.153H127.956ZM127.956 589.153L129.215 588.943V585.796" stroke="black" stroke-linecap="round"/>
<path d="M128.377 595.029H128.797V591.881L128.377 591.986M128.377 595.029V591.986ZM128.377 595.029H122.082V592.091H127.957L128.377 591.986" fill="white"/>
<path d="M128.377 595.029H128.797V591.881L128.377 591.986M128.377 595.029V591.986M128.377 595.029H122.082V592.091H127.957L128.377 591.986" stroke="black" stroke-linecap="round"/>
<path d="M122.496 597.756H129.001V595.238L122.496 595.028V597.756Z" fill="white" stroke="black" stroke-linecap="round"/>
<path d="M129.422 592.3H136.766L136.136 593.349V595.028H129.422V592.3Z" fill="white" stroke="black" stroke-linecap="round"/>
<path d="M136.137 593.14V592.3Z" fill="white"/>
<path d="M136.137 593.14V592.3" stroke="black" stroke-linecap="round"/>
<path d="M136.136 587.894H129.422V588.943H136.136V587.894Z" fill="white" stroke="black" stroke-linecap="round"/>
<path d="M129.215 586.845L130.474 586.216H137.608V587.475M137.608 587.475L136.349 588.104V592.301H136.769L136.349 593.14H137.608V587.475Z" fill="white"/>
<path d="M129.215 586.845L130.474 586.216H137.608V587.475M137.608 587.475L136.349 588.104V592.301H136.769L136.349 593.14H137.608V587.475Z" stroke="black" stroke-linecap="round"/>
<path d="M127.956 589.153H121.871V591.881H127.956V589.153ZM127.956 589.153H128.795V591.461" fill="white"/>
<path d="M127.956 589.153H121.871V591.881H127.956V589.153ZM127.956 589.153H128.795V591.461" stroke="black" stroke-linecap="round"/>
<path d="M136.14 578.242V581.18H130.055" fill="white"/>
<path d="M136.14 578.242V581.18H130.055" stroke="black" stroke-linecap="round"/>
<path d="M130.266 584.117H136.141V581.179" fill="white"/>
<path d="M130.266 584.117H136.141V581.179" stroke="black" stroke-linecap="round"/>
<path d="M130.473 586.215H136.348V584.327" fill="white"/>
<path d="M130.473 586.215H136.348V584.327" stroke="black" stroke-linecap="round"/>
<path d="M106.757 592.72V594.608H105.918V592.72H106.757Z" fill="white" stroke="black" stroke-linecap="round"/>
<path d="M107.39 595.028V597.546H106.76V595.028H106.34V597.546H105.921L105.711 594.609H106.76V592.93H108.439V594.609L107.39 595.028Z" fill="white" stroke="black" stroke-linecap="round"/>
<path d="M92.7031 594.399H104.873V597.546H92.7031V594.399Z" fill="white" stroke="black" stroke-linecap="round"/>
<path d="M90.8192 581.39L90.6094 578.242H104.878V581.39H90.8192Z" fill="white" stroke="black" stroke-linecap="round"/>
<path d="M104.872 584.537V581.389H91.0234V584.537H104.872Z" fill="white" stroke="black" stroke-linecap="round"/>
<path d="M91.0234 587.894V584.537H105.292V587.894H91.0234Z" fill="white" stroke="black" stroke-linecap="round"/>
<path d="M90.6094 578.242L100.471 576.563H112.641M112.641 576.563L105.088 578.242L105.297 587.894L108.445 587.475V584.537H110.333V583.908H111.173V580.34L112.641 580.131V576.563Z" fill="white"/>
<path d="M90.6094 578.242L100.471 576.563H112.641M112.641 576.563L105.088 578.242L105.297 587.894L108.445 587.475V584.537H110.333V583.908H111.173V580.34L112.641 580.131V576.563Z" stroke="black" stroke-linecap="round"/>
<path d="M104.871 597.756H105.92L105.71 594.399H104.871" fill="white"/>
<path d="M104.871 597.756H105.92L105.71 594.399H104.871" stroke="black" stroke-linecap="round"/>
<path d="M105.297 584.537L109.913 583.698H110.962" fill="white"/>
<path d="M105.297 584.537L109.913 583.698H110.962" stroke="black" stroke-linecap="round"/>
<path d="M105.084 591.042V588.104H92.0742V591.042H105.084Z" fill="white" stroke="black" stroke-linecap="round"/>
<path d="M92.0742 591.252V594.189H105.084V591.252L108.441 590.622" fill="white"/>
<path d="M92.0742 591.252V594.189H105.084V591.252L108.441 590.622" stroke="black" stroke-linecap="round"/>
<path d="M105.297 581.389L112.851 579.92Z" fill="white"/>
<path d="M105.297 581.389L112.851 579.92" stroke="black" stroke-linecap="round"/>
<path d="M77.8047 590.622L78.4342 596.917H91.0239L90.6043 590.622H77.8047Z" fill="white" stroke="black" stroke-linecap="round"/>
<path d="M78.0156 590.622L88.0874 588.314H91.8644V590.202M91.8644 590.202L90.8152 590.622V592.72H91.8644V590.202ZM136.978 593.35H136.138V595.028H137.187V593.35H136.978Z" fill="white"/>
<path d="M78.0156 590.622L88.0874 588.314H91.8644V590.202M91.8644 590.202L90.8152 590.622V592.72H91.8644V590.202ZM136.978 593.35H136.138V595.028H137.187V593.35H136.978Z" stroke="black" stroke-linecap="round"/>
<path d="M137.396 598.176V595.028H136.137V598.176H136.556V595.448H136.976V598.176H137.396Z" fill="white" stroke="black" stroke-linecap="round"/>
<path d="M414.789 599.015V602.372H430.316V599.015" fill="white"/>
<path d="M414.789 599.015V602.372H430.316V599.015" stroke="black" stroke-linecap="round"/>
<path d="M431.371 588.524V591.881H414.375V588.524" fill="white"/>
<path d="M431.371 588.524V591.881H414.375V588.524" stroke="black" stroke-linecap="round"/>
<path d="M414.375 591.881V595.238H431.581V591.881" fill="white"/>
<path d="M414.375 591.881V595.238H431.581V591.881" stroke="black" stroke-linecap="round"/>
<path d="M342.82 582.019H358.558V584.956H342.82V582.019Z" fill="white" stroke="black" stroke-linecap="round"/>
<path d="M367.456 588.299V590.607L360.447 590.202V587.894L360.027 587.265V589.783" fill="white"/>
<path d="M367.456 588.299V590.607L360.447 590.202V587.894L360.027 587.265V589.783" stroke="black" stroke-linecap="round"/>
<path d="M456.969 601.952L455.5 592.3Z" fill="white"/>
<path d="M456.969 601.952L455.5 592.3" stroke="black" stroke-linecap="round"/>
<path d="M455.5 601.533V592.3Z" fill="white"/>
<path d="M455.5 601.533V592.3" stroke="black" stroke-linecap="round"/>
<path d="M471.663 600.274C475.02 600.778 474.042 601.462 473.131 601.743C471.285 602.414 459.702 604.261 452.148 604.261V598.176L471.663 600.274Z" fill="white" stroke="black" stroke-linecap="round"/>
<path d="M452.141 597.966L447.734 595.448V604.261H452.141V597.966Z" fill="white" stroke="black" stroke-linecap="round"/>
<path d="M453.398 600.484L454.238 591.881Z" fill="white"/>
<path d="M453.398 600.484L454.238 591.881" stroke="black" stroke-linecap="round"/>
<path d="M455.5 583.698V582.229Z" fill="white"/>
<path d="M455.5 583.698V582.229" stroke="black" stroke-linecap="round"/>
<path d="M430.526 595.238V599.225H414.789" fill="white"/>
<path d="M430.526 595.238V599.225H414.789" stroke="black" stroke-linecap="round"/>
<path d="M447.737 595.448L448.157 589.363H440.603L440.184 595.448H447.737Z" fill="white" stroke="black" stroke-linecap="round"/>
<path d="M448.156 589.363L440.602 585.166L434.098 585.376L440.602 589.363" fill="white"/>
<path d="M448.156 589.363L440.602 585.166L434.098 585.376L440.602 589.363" stroke="black" stroke-linecap="round"/>
<path d="M432.418 585.166H425.703L426.333 585.796H427.172L431.369 588.733L438.713 588.943L432.418 585.166Z" fill="white" stroke="black" stroke-linecap="round"/>
<path d="M432.624 589.573H439.968L438.71 588.943H431.785L432.624 589.573Z" fill="white" stroke="black" stroke-linecap="round"/>
<path d="M433.044 602.163H439.339L439.968 589.573H432.415L431.785 601.533H433.044V602.163Z" fill="white" stroke="black" stroke-linecap="round"/>
<path d="M439.755 592.72H432.621Z" fill="white"/>
<path d="M439.755 592.72H432.621" stroke="black" stroke-linecap="round"/>
<path d="M439.548 595.867H432.414Z" fill="white"/>
<path d="M439.548 595.867H432.414" stroke="black" stroke-linecap="round"/>
<path d="M447.524 598.805H439.551Z" fill="white"/>
<path d="M447.524 598.805H439.551" stroke="black" stroke-linecap="round"/>
<path d="M447.524 602.163H439.551Z" fill="white"/>
<path d="M447.524 602.163H439.551" stroke="black" stroke-linecap="round"/>
<path d="M430.531 601.533H431.58L432.42 589.363L431.58 588.943V595.028L430.531 595.448V601.533Z" fill="white" stroke="black" stroke-linecap="round"/>
<path d="M433.676 585.376V585.796Z" fill="white"/>
<path d="M433.676 585.376V585.796" stroke="black" stroke-linecap="round"/>
<path d="M439.554 599.225H432Z" fill="white"/>
<path d="M439.554 599.225H432" stroke="black" stroke-linecap="round"/>
<path d="M454.237 591.671L454.027 600.064H455.076L455.496 592.3L455.706 585.586H454.447L454.237 591.671Z" fill="white" stroke="black" stroke-linecap="round"/>
<path d="M456.126 583.907H454.027V585.166H456.126V583.907Z" fill="white" stroke="black"/>
<path d="M456.127 588.943H453.609V590.202H456.127V588.943Z" fill="white" stroke="black"/>
<path d="M136.556 594.189C136.788 594.189 136.976 594.001 136.976 593.769C136.976 593.537 136.788 593.35 136.556 593.35C136.325 593.35 136.137 593.537 136.137 593.769C136.137 594.001 136.325 594.189 136.556 594.189Z" fill="white"/>
<path d="M121.451 594.189C121.683 594.189 121.871 594.001 121.871 593.769C121.871 593.537 121.683 593.35 121.451 593.35C121.219 593.35 121.031 593.537 121.031 593.769C121.031 594.001 121.219 594.189 121.451 594.189Z" fill="white"/>
<path d="M106.338 594.189C106.569 594.189 106.757 594.001 106.757 593.769C106.757 593.537 106.569 593.35 106.338 593.35C106.106 593.35 105.918 593.537 105.918 593.769C105.918 594.001 106.106 594.189 106.338 594.189Z" fill="white"/>
<path d="M121.239 587.894H108.859V584.747H121.239V587.894Z" fill="white" stroke="black" stroke-linecap="round"/>
<path d="M121.452 590.832H108.652V588.104H121.452V590.832Z" fill="white" stroke="black" stroke-linecap="round"/>
<path d="M108.652 590.832V593.979H121.032V593.14H121.452V590.832H108.652Z" fill="white" stroke="black" stroke-linecap="round"/>
<path d="M120.821 594.608H108.441L108.861 594.189H120.821V594.608Z" fill="white" stroke="black" stroke-linecap="round"/>
<path d="M121.24 583.907H110.749L110.539 584.537L121.24 584.747V583.907Z" fill="white" stroke="black" stroke-linecap="round"/>
<path d="M126.906 576.983H112.848V579.921H126.906L129.844 579.291V578.242H130.683V575.934L126.906 576.983Z" fill="white" stroke="black" stroke-linecap="round"/>
<path d="M113.055 576.773L119.559 575.934L124.595 574.675L132.569 574.885L130.89 575.514M130.89 575.514V578.242H137.185V575.514H130.89Z" fill="white"/>
<path d="M113.055 576.773L119.559 575.934L124.595 574.675L132.569 574.885L130.89 575.514M130.89 575.514V578.242H137.185V575.514H130.89Z" stroke="black" stroke-linecap="round"/>
<path d="M132.363 574.885H139.497L138.029 575.514M138.029 575.514H137.399V578.242H138.029V575.514Z" fill="white"/>
<path d="M132.363 574.885H139.497L138.029 575.514M138.029 575.514H137.399V578.242H138.029V575.514Z" stroke="black" stroke-linecap="round"/>
<path d="M129.844 579.501L130.264 586.215L129.425 586.425L129.215 583.068H127.956L127.536 579.711L126.277 579.92V583.068" fill="white"/>
<path d="M129.844 579.501L130.264 586.215L129.425 586.425L129.215 583.068H127.956L127.536 579.711L126.277 579.92V583.068" stroke="black" stroke-linecap="round"/>
<path d="M123.553 580.97L111.383 580.76L112.222 580.34L124.812 580.55M123.553 580.97L124.812 580.55ZM123.553 580.97V582.858H124.812V580.55" fill="white"/>
<path d="M123.553 580.97L111.383 580.76L112.222 580.34L124.812 580.55M123.553 580.97L124.812 580.55M123.553 580.97V582.858H124.812V580.55" stroke="black" stroke-linecap="round"/>
<path d="M127.74 583.488V586.215L129.209 585.796V583.068M127.74 583.488L129.209 583.068ZM127.74 583.488H121.445L123.334 583.068H129.209" fill="white"/>
<path d="M127.74 583.488V586.215L129.209 585.796V583.068M127.74 583.488L129.209 583.068M127.74 583.488H121.445L123.334 583.068H129.209" stroke="black" stroke-linecap="round"/>
<path d="M126.691 576.983V579.711Z" fill="white"/>
<path d="M126.691 576.983V579.711" stroke="black" stroke-linecap="round"/>
<path d="M121.871 593.14V594.818H122.29V597.966H121.871V595.238H121.451V597.966H121.031V593.14H121.871Z" fill="white" stroke="black" stroke-linecap="round"/>
<path d="M175.72 594.347L174.51 592.533L173.3 591.928H165.437V592.533V593.742H158.784V594.952L157.574 595.557V596.767H175.115L175.72 594.347Z" fill="white" stroke="black"/>
<path d="M276.727 579.226L273.703 580.436V584.065L276.727 582.25V579.226Z" fill="white" stroke="black"/>
<g opacity="0.5" filter="url(#filter1_f_3746_15132)">
<path d="M467 624.4C467 627.746 381.486 635.912 276 635.912C170.514 635.912 85 627.746 85 624.4C85 621.053 170.514 624.4 276 624.4C381.486 624.4 467 621.053 467 624.4Z" fill="black"/>
</g>
<defs>
<filter id="filter0_f_3746_15132" x="717" y="616" width="272" height="37" filterUnits="userSpaceOnUse" color-interpolation-filters="sRGB">
<feFlood flood-opacity="0" result="BackgroundImageFix"/>
<feBlend mode="normal" in="SourceGraphic" in2="BackgroundImageFix" result="shape"/>
<feGaussianBlur stdDeviation="7.5" result="effect1_foregroundBlur_3746_15132"/>
</filter>
<filter id="filter1_f_3746_15132" x="70" y="607.912" width="412" height="43" filterUnits="userSpaceOnUse" color-interpolation-filters="sRGB">
<feFlood flood-opacity="0" result="BackgroundImageFix"/>
<feBlend mode="normal" in="SourceGraphic" in2="BackgroundImageFix" result="shape"/>
<feGaussianBlur stdDeviation="7.5" result="effect1_foregroundBlur_3746_15132"/>
</filter>
<linearGradient id="paint0_linear_3746_15132" x1="738" y1="590.16" x2="922.071" y2="590.16" gradientUnits="userSpaceOnUse">
<stop stop-color="#F7F7F7"/>
<stop offset="0.493192" stop-color="#E3E3E3"/>
<stop offset="0.817025" stop-color="#DCDCDC"/>
<stop offset="1" stop-color="#CCCCCC"/>
</linearGradient>
<linearGradient id="paint1_linear_3746_15132" x1="359.522" y1="604.916" x2="472.528" y2="617.703" gradientUnits="userSpaceOnUse">
<stop offset="0.38" stop-color="#F5F5F5"/>
<stop offset="0.55" stop-color="#F5F5F5"/>
<stop offset="0.84" stop-color="#DCDCDC"/>
<stop offset="1" stop-color="#CCCCCC"/>
</linearGradient>
</defs>
</svg>
